<?xml version="1.0" standalone="no"?>
<!DOCTYPE svg PUBLIC "-//W3C//DTD SVG 1.1//EN" "http://www.w3.org/Graphics/SVG/1.1/DTD/svg11.dtd" >
<svg>
<metadata>
Created by FontForge 20110222 at Mon Mar  7 08:11:36 2011
 By www-data
Generated by Fontographer 4.0.4
</metadata>
<defs>
<font id="PokemonHollow" horiz-adv-x="550" >
  <font-face 
    font-family="Pokemon  Hollow"
    font-weight="5"
    font-stretch="normal"
    units-per-em="1000"
    panose-1="0 0 0 0 0 0 0 0 0 0"
    ascent="800"
    descent="-200"
    x-height="568"
    cap-height="908"
    bbox="-277 -474 1348 1208"
    underline-thickness="50"
    underline-position="-75"
    unicode-range="U+0020-203A"
  />
    <missing-glyph />
    <glyph glyph-name="space" unicode=" " horiz-adv-x="500" 
 />
    <glyph glyph-name="exclam" unicode="!" horiz-adv-x="200" 
d="M80 204q62 0 95.5 -33.5t33.5 -63.5q0 -46 -24.5 -77t-38.5 -34l-38 -4q-100 0 -112 94q0 46 20 77q20 36 64 41zM8 340l-64 540l292 88l-60 -612zM88 172q-36 0 -46 -34t-10 -51q3 -29 29 -45.5t58 -16.5q56 6 56 87q-4 31 -50 52q-22 8 -37 8zM32 384l116 8l44 512
l-212 -56z" />
    <glyph glyph-name="quotedbl" unicode="&#x22;" horiz-adv-x="500" 
d="M143 547l-104 14l-79 312l203 -29zM443 547l-104 14l-79 312l203 -29zM427 571l14 254l-155 20l73 -270zM127 571l14 254l-155 20l73 -270z" />
    <glyph glyph-name="numbersign" unicode="#" 
d="M504 912l-16 -136h80l-32 -152l-56 8l-12 -72l56 4l-20 -148h-56l-20 -72l-124 -8l4 84h-104l-16 -92l-116 -20l16 116l-104 -4l12 140l116 4l4 60l-104 8l12 148h128l4 132l132 -4l-20 -128h92l36 132h108zM168 752h-112l-12 -96l96 -12q0 -9 -2 -42t-2 -58l-104 -4
l-12 -92h104l-20 -108l64 8l16 92h152l-8 -80l84 8l12 60l56 12l16 88l-56 8l20 120l56 4l12 88l-68 -4l20 148l-68 -8l-36 -140l-132 4l20 132h-88zM236 648h128l-8 -100l-136 -8zM252 628l-12 -64h92l12 64h-92z" />
    <glyph glyph-name="dollar" unicode="$" 
d="M323 -40l-2 -22q0 -43 7 -98l-184 24l11 120q-67 16 -160 46l-91 30q13 28 47 123.5t37 96.5q25 -20 84 -46t85 -35t43 -11l105 -25l33 -4q22 0 39 12.5t17 30.5q0 40 -136 111.5t-216 179t-80 185.5q0 42 14.5 71.5t28 46t54.5 46.5t169 30l12 104l168 -16l-7 -114
q36 -9 97 -26.5t142 -43.5l-46 -120q-14 -39 -23 -62.5t-15 -37.5q-18 18 -99.5 53.5t-112.5 38.5q-15 0 -65 14.5t-73 14.5q-22 0 -38 -12t-16 -30q0 -33 57 -76.5t155 -92t155 -135t57 -170.5q0 -46 -35 -123.5t-218 -77.5zM292 -5l60 -4q134 0 162.5 63t28.5 106
q0 70 -49 143t-144.5 124.5t-162 108t-66.5 106.5q0 35 26.5 50.5t53.5 15.5q56 0 141.5 -25t145.5 -55l32 -11q16 -5 28 -21l60 160q-130 39 -244 61l12 119l-112 8l-12 -112l-51 2q-148 0 -174 -58.5t-26 -94.5q0 -97 93 -200t176.5 -145.5t121.5 -82t38 -73.5
q0 -32 -46 -44l-27 -2q-55 0 -146.5 21.5t-154.5 52.5l-32 11q-17 6 -28 21l-60 -160q164 -48 248 -67l-8 -113l116 -16v111z" />
    <glyph glyph-name="percent" unicode="%" horiz-adv-x="700" 
d="M776 856l-612 -1016l-252 -8l596 1012zM87 828l20 1q64 0 109.5 -36t58.5 -63.5t13 -53.5q0 -75 -39 -122t-64 -52t-54 -5q-101 0 -135.5 51t-40.5 96q0 70 33 123.5t99 60.5zM567 264l20 1q64 0 109.5 -36t58.5 -62.5t13 -54.5q0 -75 -40 -122.5t-65 -52t-52 -4.5
q-101 0 -135.5 50.5t-40.5 96.5q0 70 33 123.5t99 60.5zM708 820l-172 -4l-560 -956l160 4zM579 214q-87 -27 -87 -133q6 -45 46.5 -71t89.5 -26q46 8 66.5 48t20.5 88q-5 48 -49.5 72.5t-68.5 24.5zM99 778q-87 -27 -87 -133q6 -45 46.5 -71t89.5 -26q46 8 66.5 46.5
t20.5 89.5q-5 48 -49.5 72.5t-68.5 24.5z" />
    <glyph glyph-name="ampersand" unicode="&#x26;" horiz-adv-x="600" 
d="M200 12q-202 21 -237.5 113t-35.5 128q0 73 48 148.5t88 99.5t57 27q-98 118 -98 183q0 15 30 81.5t204 66.5l4 89h200l-24 -113q67 -16 102 -27t75 -24l75 -24l-46 -120q-14 -39 -23 -62.5t-15 -37.5q-12 18 -48 52q-34 20 -145.5 41t-167.5 21l-23 -3q-9 -2 -9 -11
q0 -26 35 -63.5t74.5 -62t77.5 -24.5l18 2l4 -144q-97 10 -196 52q-18 -4 -48 -37q-28 -33 -28 -51q0 -66 71 -104q45 -27 137 -27q102 0 236 35l32 -152l-257 -44l-15 -92h-164zM332 40l256 52l-16 96q-120 -46 -216 -46q-117 0 -180.5 57.5t-63.5 116.5q13 47 52.5 86.5
t59.5 45.5q23 -23 79.5 -45.5t92.5 -26.5v88q-43 0 -97 35.5t-88.5 77t-34.5 72.5q0 27 32 35l23 2q55 0 145 -20l76 -17l56 -13q12 -3 22 -7.5t26 -15.5q29 -16 40 -33l60 160q-29 9 -134.5 37t-117.5 31q4 3 16 108l-128 4l-8 -93l-43 2q-135 0 -177 -93l-4 -22
q0 -65 116 -202q-43 0 -78.5 -19.5t-58.5 -50.5t-31 -46q-41 -60 -41 -134q0 -80 47.5 -134t97 -76t115.5 -22l-11 -78l112 4z" />
    <glyph glyph-name="quotesingle" unicode="'" horiz-adv-x="200" 
d="M193 547l-104 14l-79 312l203 -29zM177 571l14 254l-155 20l73 -270z" />
    <glyph glyph-name="parenleft" unicode="(" horiz-adv-x="400" 
d="M380 56l-24 -232q-188 136 -270 276t-82 268v18.5t10 116.5t171.5 249.5t258.5 167.5l-28 -200q-83 -58 -143 -145t-69.5 -140.5t-9.5 -73.5q0 -156 186 -305zM332 -128l24 156q-197 176 -197 340l2 33q15 126 100.5 213.5t134.5 117.5l10 82l6 70q-89 -47 -224 -170
t-152 -314l-1 -30q0 -158 96.5 -284.5t200.5 -213.5z" />
    <glyph glyph-name="parenright" unicode=")" horiz-adv-x="400" 
d="M20 56q186 146 186 305q0 21 -13 103t-88.5 150.5t-91 82t-29.5 23.5l-28 200q94 -22 257 -167t181 -345l2 -40q0 -131 -81 -269t-271 -275zM68 -128q78 66 134.5 129.5t109.5 158t53 210.5l-1 30q-17 191 -153 315t-223 169l6 -68l10 -84q55 -34 137.5 -120.5
t97.5 -210.5l2 -33q0 -106 -62 -190.5t-135 -149.5z" />
    <glyph glyph-name="asterisk" unicode="*" horiz-adv-x="400" 
d="M112 932l152 -4v-144l96 84l84 -100l-144 -104l112 -172l-132 -36l-108 144l-104 -148l-104 92l116 132l-148 100l96 112l88 -84zM248 744l-8 156h-100l8 -152l-124 100l-48 -64l132 -100l-104 -140l64 -48l104 140l116 -148l72 24l-92 156l144 104l-56 60z" />
    <glyph glyph-name="plus" unicode="+" horiz-adv-x="450" 
d="M8 520l164 15l12 153h156l-16 -140l152 16l-16 -160l-164 -5l-20 -163h-152l20 158l-148 -6zM176 424l-24 -164h100l20 163l152 5l8 96l-136 -12l12 144l-100 4l-20 -156l-156 -8v-80z" />
    <glyph glyph-name="comma" unicode="," horiz-adv-x="400" 
d="M346 92l-197 -259l-186 65l290 227zM317 78l-58 26l-255 -195l141 -50z" />
    <glyph glyph-name="hyphen" unicode="-" horiz-adv-x="450" 
d="M8 520l468 44l-16 -160l-464 -16zM32 496v-80l392 12l8 96z" />
    <glyph glyph-name="period" unicode="." horiz-adv-x="200" 
d="M80 204q62 0 95.5 -33.5t33.5 -63.5q0 -46 -24.5 -77t-38.5 -34l-38 -4q-100 0 -112 94q0 46 20 77q20 36 64 41zM88 172q-36 0 -46 -34t-10 -51q3 -29 29 -45.5t58 -16.5q56 6 56 87q-4 31 -50 52q-22 8 -37 8z" />
    <glyph glyph-name="slash" unicode="/" horiz-adv-x="700" 
d="M776 856l-612 -1016l-252 -8l596 1012zM708 820l-172 -4l-560 -956l160 4z" />
    <glyph glyph-name="zero" unicode="0" 
d="M300 820q162 0 229 -118.5t67 -282.5v-23q0 -70 -44.5 -165t-118 -161t-165.5 -66q-184 0 -231 111t-58 166.5t-11 122.5q0 43 2.5 71t22.5 130.5t98 148.5t118 56t91 10zM304 768q-154 0 -201.5 -66t-67 -135t-19.5 -159l-1 -39q0 -141 50.5 -205.5t97.5 -88t105 -23.5
q32 0 61.5 9t91.5 46t85 119t28.5 112t5.5 58l1 44q0 152 -60.5 240t-176.5 88zM280 560q55 0 87.5 -44.5t32.5 -115.5q0 -42 -19.5 -85.5t-96.5 -54.5q-71 0 -91.5 49.5t-20.5 82.5q0 94 34 131t74 37zM368 412q-26 108 -88 108q-35 0 -58 -42q-18 -36 -18 -74q0 -34 4 -47
q3 -22 20.5 -41.5t51.5 -19.5q44 0 66 37.5t22 78.5z" />
    <glyph glyph-name="one" unicode="1" horiz-adv-x="250" 
d="M272 0l-220 -12l12 720l-128 -12l24 120l304 100zM240 24v856l-256 -80l-16 -68l124 32l-12 -752z" />
    <glyph glyph-name="two" unicode="2" 
d="M332 320q-70 -20 -118 -93.5t-70 -158.5l480 84l-48 -152l-612 -104q0 284 55 394.5t135 142.5q43 0 90.5 24t119 90.5t71.5 109.5q0 10 -7 11l-27 3q-28 0 -73 -9l-72 -14q-53 -6 -131 -47t-81 -45q-4 4 -7 10t-8 20l-16 50q-9 26 -21.5 59t-31.5 81l221 68
q126 32 213 32q79 0 137.5 -28t79 -72.5t20.5 -73.5q0 -102 -90 -225.5t-209 -156.5zM164 392q-112 -16 -138 -189.5t-26 -270.5l552 88l28 100l-464 -76q0 40 13.5 82t57.5 118.5t158.5 109.5t181 141.5t66.5 204.5q0 32 -16 67t-60 56.5t-111 21.5q-75 0 -186 -26.5
t-228 -62.5l60 -160q13 18 28 22l32 10q27 14 66 27.5t81.5 24t82.5 16.5t71 6q22 0 39 -5t17 -30q0 -64 -83.5 -144t-97.5 -83l-85 -36q-14 -6 -20 -7.5t-19 -4.5z" />
    <glyph glyph-name="three" unicode="3" horiz-adv-x="600" 
d="M184 492l17 -2q42 0 83.5 27.5t74.5 65.5q30 38 30 57q0 8 -7 10.5t-13 2.5t-12 1q-54 0 -167.5 -21.5t-136 -34.5t-37.5 -34l-20 -24q-4 4 -7 10t-8 20l-16 50q-9 26 -21.5 59t-31.5 81l221 68q126 32 213 32q79 0 137 -28t76.5 -67t18.5 -54q0 -64 -98 -183
q18 -2 57.5 -26.5t87.5 -100.5t48 -148q0 -37 -32 -117.5t-140 -104t-162 -23.5q-13 0 -28 0.5t-35 3.5l-300 52l32 152q142 -35 236 -35q160 0 184 55t24 76q0 20 -28.5 52t-47.5 36q-46 -19 -96.5 -33t-99.5 -19zM204 376q33 4 91.5 27t80.5 45q41 -12 73.5 -61.5
t38.5 -70.5q0 -59 -63.5 -116.5t-180.5 -57.5q-99 0 -216 46l-16 -96l256 -52q49 -10 92 -10q136 0 204.5 75t68.5 157q0 70 -41 134q-25 50 -62 75t-59.5 33t-46.5 8q116 134 116 202q0 14 -23 64.5t-159 50.5q-76 0 -170 -22t-244 -67l60 -160q11 16 40.5 34t47.5 22
l133 30q47 10 82 15t62 5q16 0 35.5 -4t19.5 -33q0 -36 -31 -69.5t-53 -51.5t-59 -41t-77 -23v-88z" />
    <glyph glyph-name="four" unicode="4" 
d="M-24 752l208 20l-28 -284l140 -28l28 340l244 32l-96 -964q-27 -11 -81 -11q-39 0 -67.5 2t-67.5 9l28 440l-336 52zM540 804l-196 -36l-24 -340l-188 40l28 272l-164 -16l-24 -344l335 -52l-23 -420q0 -20 80 -20q44 0 80 4z" />
    <glyph glyph-name="five" unicode="5" horiz-adv-x="600" 
d="M44 344q-44 145 -86 262t-82 202l69 -1q255 0 425 38t226 63l16 -172q-49 -20 -105.5 -37t-138 -35t-164.5 -18q-40 0 -76 6l28 -148q144 36 244 36q50 0 80 -12q18 -2 57.5 -26.5t87.5 -100.5t48 -148q0 -37 -32 -117.5t-140 -104t-162 -23.5q-13 0 -28 0.5t-35 3.5
l-300 52l32 152q142 -35 236 -35q160 0 184 55t24 76q0 20 -28.5 52t-47.5 36q-59 -26 -332 -56zM382 515q-72 0 -150.5 -26.5t-87.5 -26.5q-5 14 -8.5 26t-9.5 40l-16 77q-8 35 -13 50.5t-9 20.5q8 -4 20 -6t33 -2q83 0 230.5 35t212.5 53l-4 124q0 -32 -156.5 -57
t-251.5 -34t-170 -9q-63 0 -94 8l114 -287q12 -30 24 -65t18 -56l157 28q63 10 102 15t61 5q36 -4 67 -46.5t37 -65.5q0 -59 -63.5 -116.5t-180.5 -57.5q-99 0 -216 46l-16 -96l256 -52q49 -10 92 -10q136 0 204.5 75t68.5 157q0 70 -41 134q-11 21 -33.5 43t-35 31.5
t-45 27t-96.5 17.5z" />
    <glyph glyph-name="six" unicode="6" horiz-adv-x="600" 
d="M272 516q47 27 110 27q36 0 54 -15q18 -2 57.5 -26.5t87.5 -101.5t48 -147q0 -37 -30.5 -114t-104 -108t-105.5 -39t-68 -8l-51 -1q-151 0 -213.5 64t-80.5 117l-4 37q0 93 33.5 200.5t97 228.5t213 209.5t312.5 120.5l-124 -196q-92 -68 -157 -138t-75 -110zM248 476
q-13 12 -13 31q0 69 151 198l98 79l80 124q-114 -13 -262 -126.5t-196 -213.5t-73.5 -200t-25.5 -157q0 -33 19 -84.5t93 -84.5t167 -33q44 0 124 12.5t131 88.5l47 86q16 31 16 65q0 59 -38 112l-18 23q-35 45 -77.5 73t-90.5 43l-25 3q-51 0 -107 -39zM420 308
q4 -16 4.5 -22t0.5 -13q0 -65 -41.5 -94t-91.5 -36l-23 -1q-49 0 -86 32q-34 34 -34 85l3 21q11 42 62 80.5t84 38.5q42 0 75 -25t47 -66zM384 316q-17 47 -64 47q-26 0 -75 -23.5t-49 -47.5l-4 -16l-3 -27q0 -69 83 -69l28 2q42 5 66.5 30.5t24.5 63.5q0 20 -7 40z" />
    <glyph glyph-name="seven" unicode="7" horiz-adv-x="700" 
d="M468 652l-544 44v192l848 -68l-372 -968l-236 -20zM512 676l-312 -812l176 20l368 920l-792 56v-136z" />
    <glyph glyph-name="eight" unicode="8" horiz-adv-x="600" 
d="M304 -16l-14 -1h-20q-151 0 -227.5 77.5t-76.5 175.5q0 125 61 180t137 92q-156 60 -156 164q0 35 37.5 114.5t210.5 79.5l52 -2q33 0 54 -3t56.5 -10.5t60.5 -18.5t53.5 -35t43.5 -56t17 -47q0 -35 -57 -101l-56 -65q18 -2 57.5 -26.5t87.5 -100.5t48 -148
q0 -37 -29.5 -113.5t-136.5 -116t-203 -39.5zM376 16q144 29 181.5 61.5t51.5 59.5l23 59q11 31 11 62q0 76 -51 138q-27 50 -63 75t-58.5 33t-46.5 8l55 62l38 43q14 18 19.5 26t11 18.5t8.5 21.5t3 17l-3 16q-28 67 -80 84t-89.5 22.5t-82.5 5.5l-64 1q-99 0 -129.5 -27
t-47 -59t-16.5 -61q0 -72 64.5 -117.5t124.5 -68.5q-97 0 -139 -46.5t-54.5 -64.5t-30 -48.5t-17.5 -89.5q0 -125 88 -183.5t192 -58.5q27 0 47.5 2t53.5 9zM272 395l50 16q33 12 46 25q44 -12 79 -55t41 -65l2 -13q0 -39 -26 -73.5t-63 -59.5q-47 -28 -109 -28l-20 1
q-72 0 -109.5 25.5t-37.5 70.5q0 17 7.5 43.5t55.5 64t84 48.5zM274 725q39 0 89 -12l33 -9q38 -9 38 -30q0 -46 -130 -106l-61 30q-21 12 -31.5 19t-26.5 21.5t-16 29.5q0 27 35 42t70 15zM272 365q-23 -5 -59.5 -29t-36.5 -44l-2 2q-2 -4 -6 -15l-8 -31q0 -55 120 -66
l24 -1q113 0 130.5 53.5t17.5 77.5q0 20 -28.5 52t-47.5 36q-19 -8 -52.5 -19t-51.5 -16zM204 672q-6 -8 -6 -14q0 -11 39 -31l55 -27l58 29q45 23 45 34q0 6 -20 23.5t-84 17.5q-61 0 -87 -32z" />
    <glyph glyph-name="nine" unicode="9" horiz-adv-x="600" 
d="M340 324q-26 -16 -79 -16q-50 0 -73 20q-69 12 -131 107.5t-62 167.5q0 37 36.5 129t140 116t148.5 24l14 1h20q151 0 213.5 -64t80.5 -117l4 -37q0 -69 -29.5 -181t-62.5 -174l-71 -137q-109 -208 -187 -304.5t-142 -138.5l-160 8q37 59 85 139t84 139l94 158
q32 58 51.5 98t25.5 62zM380 372l2 -12q0 -72 -144.5 -319.5t-189.5 -280.5l108 -4q83 48 188.5 218.5t149 261.5t58.5 133t40 120t25 156q0 73 -65.5 137.5t-213.5 64.5q-47 0 -125.5 -12.5t-129.5 -88.5l-47 -86q-16 -31 -16 -65q0 -44 15.5 -72.5t23.5 -40.5t17 -22
q25 -37 62.5 -62.5t58.5 -35.5t47 -18q9 -4 29 -4q52 0 107 32zM204 548q-5 17 -5 35q0 114 133 130l23 1q77 0 98.5 -45.5t21.5 -71.5l-3 -21q-12 -42 -62.5 -80.5t-83.5 -38.5q-44 0 -76 25t-46 66zM240 540q17 -47 64 -47q29 0 72 23q52 24 52 48h1q3 11 5 24l1 19
q0 69 -83 69l-28 -2q-91 -11 -91 -94q0 -20 7 -40z" />
    <glyph glyph-name="colon" unicode=":" 
d="M280 196q62 0 95.5 -33.5t33.5 -63.5q0 -47 -25.5 -78.5t-37.5 -32.5q-8 -2 -19 -3t-19 -1q-99 0 -112 94q0 45 21 79.5t63 38.5zM180 496q62 0 95.5 -33.5t33.5 -63.5q0 -46 -24.5 -77t-38.5 -34l-38 -4q-100 0 -112 94q0 43 20.5 78t63.5 40zM188 464q-26 0 -41 -27.5
t-15 -57.5q3 -28 29 -45t58 -17q56 6 56 87q-4 31 -50 52q-22 8 -37 8zM288 164q-26 0 -41 -26.5t-15 -58.5q3 -29 29 -45.5t58 -16.5q56 6 56 87q-3 31 -30.5 43.5t-38.5 14.5t-18 2z" />
    <glyph glyph-name="semicolon" unicode=";" horiz-adv-x="450" 
d="M180 496q62 0 95.5 -33.5t33.5 -63.5q0 -46 -24.5 -77t-38.5 -34l-38 -4q-100 0 -112 94q0 43 20.5 78t63.5 40zM346 92l-197 -259l-186 65l290 227zM317 78l-58 26l-255 -195l141 -50zM188 464q-26 0 -41 -27.5t-15 -57.5q3 -28 29 -45t58 -17q56 6 56 87q-4 31 -50 52
q-22 8 -37 8z" />
    <glyph glyph-name="less" unicode="&#x3c;" horiz-adv-x="500" 
d="M4 524l588 232l-20 -168l-252 -76l232 -80l-24 -172zM556 708l-121 -45l-359 -139l432 -224l12 104l-256 108l280 96z" />
    <glyph glyph-name="equal" unicode="=" horiz-adv-x="450" 
d="M8 604l468 44l-16 -160l-464 -16zM4 392l468 44l-16 -160l-464 -16zM32 580v-80l392 12l8 96zM28 368v-80l392 12l8 96z" />
    <glyph glyph-name="greater" unicode="&#x3e;" horiz-adv-x="500" 
d="M546 524l-524 -264l-24 172l232 80l-252 76l-20 168zM-6 708l6 -55l6 -45l280 -96l-256 -108l12 -104l432 224l-147 58l-213 82z" />
    <glyph glyph-name="question" unicode="?" 
d="M154 433q43 0 90.5 24t119 90.5t71.5 109.5q0 10 -7 11l-27 3q-28 0 -73 -9l-72 -14q-53 -6 -131 -47t-81 -45q-4 4 -7 10t-8 20l-16 50q-9 26 -21.5 59t-31.5 81l221 68q126 32 213 32q79 0 137 -27t76 -66t18 -53q0 -70 -84 -168.5t-180.5 -178t-155.5 -97.5zM280 196
q62 0 95.5 -33.5t33.5 -63.5q0 -47 -25.5 -78.5t-37.5 -32.5q-8 -2 -19 -3t-19 -1q-99 0 -112 94q0 45 21 79.5t63 38.5zM288 164q-26 0 -41 -26.5t-15 -58.5q3 -29 29 -45.5t58 -16.5q56 6 56 87q-3 31 -30.5 43.5t-38.5 14.5t-18 2zM288 440l-41 -16l-59 -24l26 -73
q133 49 253 190t120 216q0 11 -16.5 50.5t-72.5 50t-70 11t-22 0.5q-75 0 -186 -26.5t-228 -62.5l60 -160q13 18 28 22l32 10q27 14 66 27.5t81.5 24t82.5 16.5t71 6q22 0 39 -5t17 -30q0 -64 -83.5 -144t-97.5 -83z" />
    <glyph glyph-name="at" unicode="@" horiz-adv-x="650" 
d="M336 564q-36 0 -71 -65.5t-42 -92.5t-7 -45q0 -99 72 -122t94 -29t50 -6l-32 -204q-157 0 -256 71t-141.5 148.5t-42.5 176.5l-1 43q0 256 125.5 318.5t215.5 62.5q79 0 156.5 -25.5t135 -72.5t78 -96t20.5 -120q0 -146 -48.5 -194.5t-75 -60t-58.5 -11.5
q-59 0 -124.5 24.5t-131.5 71.5l116 160q35 -19 63 -19q19 0 21 15q0 34 -63 60q-27 9 -53 12zM480 516q10 -21 10 -37q0 -33 -46 -33q-16 0 -33.5 3t-38.5 11l-72 -108l-2 -5q0 -18 39.5 -33.5t57 -21t55.5 -15t74 -9.5q94 29 110 97.5t18 84.5t2 37q0 87 -37 143
t-125.5 97.5t-165.5 41.5l-22 -1q-183 -18 -243.5 -104t-60.5 -264q0 -143 119.5 -251.5t256.5 -108.5l24 136q-118 0 -167.5 64t-49.5 130l1 26q5 46 24.5 80.5t34.5 53.5t43.5 44.5t69.5 25.5q42 0 78.5 -33.5t45.5 -50.5z" />
    <glyph glyph-name="A" unicode="A" 
d="M312 900l480 -1156l-204 -20l-228 532l-128 20l-200 -424l-252 -12zM312 828l-480 -956l172 4l212 424l160 -24l228 -520l144 8zM308 564l48 -188l-116 16zM328 404l-24 112l-36 -100z" />
    <glyph glyph-name="B" unicode="B" horiz-adv-x="600" 
d="M668 424q50 -80 50 -149q0 -77 -58 -137t-127 -87t-113 -39l-168 -44l-160 640q-5 0 -32 -33l-16 -19q-4 4 -7 10t-8 20l-16 50q-9 26 -21.5 59t-31.5 81l221 68q126 32 213 32q79 0 138.5 -28t76.5 -67t17 -54q0 -64 -98 -183q69 -9 140 -120zM384 32q165 48 236 115
t71 137q0 72 -51 128q-29 57 -70.5 86.5t-97.5 29.5q116 133 116 202q0 14 -13.5 43t-57.5 50.5t-111 21.5q-75 0 -186 -26.5t-228 -62.5l60 -160q27 38 52 38q5 0 8 -6l160 -628zM536 332l3 -19q0 -61 -59 -94t-120 -47l-36 212q38 26 100 80q39 -12 72 -60.5t40 -71.5z
M268 684q93 21 129 21q25 0 48 -5.5t23 -29.5q0 -50 -106 -152l-54 -50zM300 660l28 -144q108 105 108 141q0 10 -8 11q-46 13 -67 13q-31 0 -61 -21zM380 212q120 50 120 116q0 20 -28.5 52t-47.5 36q-37 -35 -68 -48z" />
    <glyph glyph-name="C" unicode="C" horiz-adv-x="600" 
d="M674 616l-219 -143q-23 55 -147 55q-27 0 -57.5 -40.5t-30.5 -91.5q0 -35 22.5 -73.5t73.5 -38.5q37 0 81 21t75 84q3 -6 120 -102l59 -48q-69 -165 -164.5 -191t-128.5 -31t-66 -5q-195 0 -248.5 101.5t-68.5 157.5t-15 125l-1 43q0 256 107 310t146.5 62.5t87.5 8.5
q127 0 239.5 -57.5t134.5 -146.5zM617 629q-32 81 -132.5 110.5t-155.5 29.5l-25 -1q-183 -16 -243.5 -103t-60.5 -265q0 -96 36 -178t106 -130t154 -48q20 0 37 2t77 14.5t112 62.5t82 105l-132 110q-18 -46 -59 -67q-30 -13 -89 -19q-75 0 -107.5 56.5t-32.5 87.5
q0 61 38.5 116.5t97.5 55.5q36 0 89 -15t66 -33z" />
    <glyph glyph-name="D" unicode="D" horiz-adv-x="650" 
d="M620 756q46 -93 57 -165.5t11 -123.5q0 -175 -64.5 -269t-125.5 -135q-54 -32 -134 -47l-204 -36l-68 628q-2 -2 -7.5 -7t-15 -16.5t-15 -18t-10.5 -10.5q-14 9 -34.5 112t-29.5 124q250 82 398 82q184 0 242 -118zM584 752q-69 93 -206 93q-71 0 -150.5 -18t-106 -25
t-101.5 -30l32 -176q26 38 53 38q5 0 7 -6l68 -612l148 20q84 11 123.5 36t51.5 34t81 75.5t69 276.5q0 121 -27.5 197.5t-41.5 96.5zM440 700q71 -20 71 -228q0 -67 -10.5 -129t-72.5 -107.5t-124 -59.5l-36 508q54 14 90 19l37 3q24 0 45 -6zM428 668q-42 14 -64 14
q-33 0 -64 -22l24 -444q124 52 144 128q15 33 15 148q0 157 -55 176z" />
    <glyph glyph-name="E" unicode="E" 
d="M256 64l512 -24l-4 -212l-712 36l-40 736l-68 -12l12 232l592 88l12 -212l-336 -56l8 -152l332 56l12 -176l-336 -64zM232 28l-15 296l335 64l-12 132l-330 -64l-10 204l332 56l-8 164l-540 -80l-16 -176l64 8l48 -744l664 -32q1 7 1.5 16.5t0.5 17.5q0 68 -6 130l-69 1z
" />
    <glyph glyph-name="F" unicode="F" 
d="M52 -136l-40 736l-68 -12l12 232l592 88l12 -212l-336 -56l8 -152l252 40l12 -176l-256 -48l28 -440q-80 -11 -135 -11q-56 0 -81 11zM240 -96l-23 420l255 48l-12 132l-250 -48l-10 204l332 56l-8 164l-540 -80l-16 -176l64 8l48 -744q40 -4 80 -4q80 0 80 20z" />
    <glyph glyph-name="G" unicode="G" horiz-adv-x="600" 
d="M368 296l-36 16l56 128l276 -104l-64 -540l-248 20l37 114l31 98q-34 -16 -128 -16q-195 0 -248.5 101.5t-68.5 157.5t-15 125l-1 43q0 256 107 310t146.5 62.5t87.5 8.5q127 0 239.5 -57.5t134.5 -146.5l-219 -143q-23 55 -147 55q-27 0 -57.5 -40.5t-30.5 -91.5
q0 -34 17 -63.5t34.5 -39t44.5 -9.5l35 8zM432 308q-23 -25 -49 -39t-59 -17q-75 0 -107.5 56.5t-32.5 87.5q0 61 38.5 116.5t97.5 55.5q36 0 89 -15t66 -33l142 109q-32 81 -132.5 110.5t-155.5 29.5l-25 -1q-183 -16 -243.5 -103t-60.5 -265q0 -96 36 -178t105.5 -130
t154.5 -48h44q67 0 112 24l-60 -224l184 -16l64 492l-240 92q-30 -76 -32 -88z" />
    <glyph glyph-name="H" unicode="H" 
d="M248 912l12 -340h68l-20 320l260 -20l52 -1088l-200 4l-80 572l-76 20l-4 -516l-232 -4l-28 936l-84 20l-4 124zM544 848l-200 16l16 -332l-120 8l-20 348l-280 24l4 -68l88 -12l20 -948l172 4l16 532l132 -24l76 -588l144 8z" />
    <glyph glyph-name="I" unicode="I" 
d="M320 224l248 -4l-4 -212h-588l24 188l136 4l20 424l-212 -36l12 232l592 88l12 -212l-204 -40zM288 188l44 488l200 40l-8 164l-540 -80l-16 -176l216 28l-20 -472l-144 -12l-16 -136l540 4l2 34q0 68 -6 130l-48 -2l-165 -8z" />
    <glyph glyph-name="J" unicode="J" horiz-adv-x="650" 
d="M4 436l248 60l-3 -81q0 -54 10.5 -79t37.5 -55.5t54 -30.5q31 0 54.5 60t23.5 200q0 2 -6 113.5t-6 162.5l-9 162l260 -20q22 -138 22 -348q0 -114 -8.5 -199.5t-30 -150.5t-87 -126t-105.5 -84t-125 -23q-140 0 -201.5 52t-81 74.5t-39.5 63t-20 110.5q0 44 12 139z
M32 400q-9 -50 -9 -92q0 -85 36 -137t94.5 -93t166.5 -41q169 0 221.5 74t74.5 118t32 88.5t10 106.5l3 128q0 90 -4 178.5t-13 173.5l-200 16q5 -28 8 -67t3 -70q0 -57 2.5 -142.5t2.5 -96.5q0 -187 -23.5 -255t-86.5 -68t-97 65.5t-34 143.5l1 22z" />
    <glyph glyph-name="K" unicode="K" 
d="M-40 816l248 104v-160l132 140l168 -140l-240 -348l500 -384l12 -196l-508 276l12 -240l-232 -4l-44 848l-72 -16zM-16 800l-16 -68l68 36l44 -880l172 4l-8 272l508 -284q0 58 -4 89t-8 51l-65 48l-443 336l248 348l-35 27.5t-60 50.5l-41 34l-156 -160l-4 180z" />
    <glyph glyph-name="L" unicode="L" 
d="M256 64l512 -24l-4 -212l-712 36l-44 848l-72 -16l24 120l248 104zM232 28l-48 856l-200 -84l-16 -68l68 36l44 -880l664 -32q1 7 1.5 16.5t0.5 17.5q0 68 -6 130l-69 1z" />
    <glyph glyph-name="M" unicode="M" horiz-adv-x="700" 
d="M72 728l240 16l64 -104l56 144l156 4l184 -856l-284 28l-52 292l-56 -108l-76 136l-24 -248l-276 -20zM312 708l-224 -12l-52 -656l224 16l28 296l26 -51q17 -34 32 -61.5t30 -51.5q6 8 12 19.5t31 62t29 54.5l60 -344l232 -28l-151 707l-21 109l-124 -4l-68 -184z" />
    <glyph glyph-name="N" unicode="N" 
d="M208 920l128 -324l-28 296l304 -12l8 -1096l-180 -12l-184 520l4 -428l-232 -4l-28 936l-84 20l-4 124zM584 848l-240 16l32 -424l-192 444l-244 28l4 -68l88 -12l20 -948l172 4l16 532l208 -612l144 8z" />
    <glyph glyph-name="O" unicode="O" horiz-adv-x="750" 
d="M680 732q116 -89 116 -236q0 -105 -40 -180.5t-105.5 -156.5t-166.5 -134.5t-193 -53.5q-105 0 -180 50t-109.5 135.5t-34.5 171.5q0 154 109.5 278.5t208 167.5t167.5 43q116 0 228 -85zM656 696q-31 25 -62 40.5t-56 22t-39 8.5t-33 2q-81 0 -168.5 -50t-184 -154
t-96.5 -254q0 -73 28 -142t84 -110t136 -41q135 0 238.5 79t143.5 132.5t68.5 126.5t28.5 145q0 125 -88 195zM584 606q3 -14 5 -27.5t2 -28.5q0 -59 -30.5 -106.5t-86.5 -47.5q-39 0 -76 29.5t-37 85.5q0 65 40.5 106t103.5 41q-75 -41 -75 -109q0 -34 16.5 -51.5
t36.5 -17.5q37 0 65.5 42t35.5 84z" />
    <glyph glyph-name="P" unicode="P" 
d="M-40 776l221 68q126 32 213 32q79 0 138.5 -28t76.5 -67t17 -53q0 -97 -104.5 -200t-123 -121t-42.5 -39l88 -308l-128 -92l-224 640l-9 -9l-22 -24l-17 -19q-4 4 -7 10t-8 20l-16 50q-9 26 -21.5 59t-31.5 81zM-8 756l60 -160q27 38 52 38q5 0 8 -6l212 -624l92 56
l-92 324q146 121 205 215t59 132q0 13 -13.5 42t-57.5 50.5t-111 21.5q-75 0 -186 -26.5t-228 -62.5zM244 672l117 27q25 4 48 4q20 0 39 -5.5t19 -28.5q0 -68 -163 -225zM276 640l40 -144q120 122 120 161q0 10 -16.5 13t-34.5 3q-64 0 -109 -33z" />
    <glyph glyph-name="Q" unicode="Q" horiz-adv-x="500" 
d="M376 30q-68 -36 -139 -36q-101 0 -174.5 64t-73.5 200q0 148 59 271.5t145.5 155t137.5 31.5q83 0 135.5 -45.5t84.5 -119.5t32 -159q0 -82 -22.5 -138t-45.5 -94q23 -14 52 -38t57.5 -54.5t47.5 -71.5l-140 -104q-36 63 -79 100.5t-77 37.5zM394 80q50 -12 146 -136
l84 60q-3 35 -66 82t-72 55t-13 11q32 40 53.5 104.5t21.5 142.5q0 175 -81 233.5t-144 58.5q-95 0 -154.5 -57.5t-88 -112.5t-45.5 -127.5t-17 -132.5q0 -134 69 -184t145 -50q87 0 162 53zM412 502q12 -44 12 -86q0 -61 -23.5 -117.5t-68 -92t-88.5 -35.5q-37 0 -69.5 26
t-32.5 93q0 91 56 177.5t135 86.5q64 0 79 -52zM344 516q-5 4 -13 4q-30 0 -67.5 -45t-62.5 -94.5t-25 -88.5q0 -32 7.5 -46.5t28.5 -23t40 -8.5q75 0 103 79t28 124q0 73 -39 99z" />
    <glyph glyph-name="R" unicode="R" horiz-adv-x="600" 
d="M362 433q-11 -10 -33 -31t-33 -30l64 -356l-168 -44l-100 636q-3 -2 -10.5 -9t-21.5 -25l-16 -18q-4 4 -7 10t-8 20l-16 50q-9 26 -21.5 59t-31.5 81l221 68q126 32 213 32q79 0 137 -27t76 -66t18 -52q0 -42 -52 -113l-53 -66q26 -3 52 -39q27 -41 36 -85l84 -432
l-148 -32l-108 396q-8 29 -28 52t-36 23zM468 532q120 137 120 200q0 12 -13.5 41t-57.5 50.5t-111 21.5q-75 0 -186 -26.5t-228 -62.5l60 -160q26 38 52 38q6 0 8 -6l100 -624l112 32l-60 352q17 12 41.5 31.5t58.5 48.5q43 -13 83 -59q17 -22 17 -38q0 -10 -4 -15
l108 -352l88 24l-76 388q0 51 -32.5 83.5t-79.5 32.5zM212 680q92 21 129 21q9 0 20.5 -1t37.5 -8t26 -40q0 -59 -63.5 -112.5t-109.5 -75.5zM244 656l28 -144q31 8 71.5 55.5t40.5 78.5q0 15 -12.5 18t-36 8t-30.5 5q-31 0 -61 -21z" />
    <glyph glyph-name="S" unicode="S" 
d="M-20 756q54 116 228 116q98 0 177 -20.5t122.5 -33.5t132.5 -42l-46 -120q-14 -39 -23 -62.5t-15 -37.5q-18 18 -99.5 53.5t-112.5 38.5q-15 0 -65 14.5t-73 14.5q-22 0 -38 -12t-16 -30q0 -33 57 -76.5t155 -92t155 -135t57 -170.5q0 -46 -36 -123.5t-205 -77.5
q-89 0 -214 33l-113 34l-104 33q13 28 47 123.5t37 96.5q25 -20 84 -46t85 -35t43 -11l105 -25l33 -4q22 0 39 12.5t17 30.5q0 40 -136 111.5t-216 179t-80 185.5q0 39 18 78zM16 752q-15 -35 -15 -71q0 -97 93 -200t176.5 -145.5t121.5 -82t38 -73.5q0 -32 -46 -44l-27 -2
q-55 0 -146.5 21.5t-154.5 52.5l-32 11q-17 6 -28 21l-60 -160q143 -41 245.5 -65t168.5 -24q134 0 163.5 63t29.5 106q0 70 -49 143t-144.5 124.5t-162 108t-66.5 106.5q0 35 26.5 50.5t53.5 15.5q56 0 141.5 -25t145.5 -55l32 -11q16 -5 28 -21l60 160
q-158 47 -253.5 62.5t-153.5 15.5q-148 0 -185 -82z" />
    <glyph glyph-name="T" unicode="T" 
d="M452 644l28 -656h-30q-99 0 -142 6t-50 7t-18 7l-32 628l-304 -4l4 192l780 52l12 -212zM420 676l252 8l-8 164l-736 -40l4 -152l296 12l40 -636q88 -17 142 -17q42 0 42 13z" />
    <glyph glyph-name="U" unicode="U" horiz-adv-x="650" 
d="M248 912l-3 -105q0 -200 18 -339.5t36.5 -179.5t46.5 -40q35 0 59 61t24 185q0 16 -4 92.5t-4 105.5l-7 118l-6 82l260 -20q22 -139 22 -320q0 -203 -30 -295t-95.5 -153t-105.5 -84t-125 -23q-140 0 -215 64t-102.5 216.5t-27.5 316.5q0 124 11 202l-84 20l-4 124z
M220 888l-280 24l4 -68l88 -12q-9 -50 -9 -185q0 -165 23 -336.5t94 -222.5t180 -51q169 0 221.5 74t74.5 117t32 87t10 99l3 117q0 134 -11 252l-6 65l-200 16q5 -32 9.5 -87t4.5 -119l2 -135q0 -164 -25.5 -238t-95.5 -74q-32 0 -56 25t-33 68t-18.5 111t-9.5 161
q0 35 -4 98t-4 91q0 72 6 123z" />
    <glyph glyph-name="V" unicode="V" horiz-adv-x="700" 
d="M12 744l-84 20l-4 124l296 -20l184 -580l132 544l284 -16l-296 -904l-220 4zM44 780l276 -836h176l296 840l-240 16l-140 -600l-216 632l-244 28l4 -68z" />
    <glyph glyph-name="W" unicode="W" horiz-adv-x="700" 
d="M628 -48l-240 -16l-64 104l-56 -144l-156 -4l-184 856l284 -28l52 -292l56 108l76 -136l40 452l276 20zM388 -28l224 12l68 860l-224 -16l-44 -500l-26 51q-42 82 -62 113l-36 -67l-36 -69l-60 344l-232 28l131 -613l41 -203l124 4l68 184z" />
    <glyph glyph-name="X" unicode="X" horiz-adv-x="700" 
d="M352 164l-188 -324l-252 -8l348 564l-292 488l272 -40l136 -232l132 232l268 12l-284 -477l252 -503l-276 64zM447 378l261 442l-172 -4l-156 -272l-168 272l-184 28l276 -448l-328 -536l160 4l224 368l136 -268l200 -48z" />
    <glyph glyph-name="Y" unicode="Y" horiz-adv-x="700" 
d="M28 756l-100 8l-4 124l296 -20l200 -372l116 336l236 -12l-372 -968l-236 -20l144 412zM44 780l296 -528l-140 -388l176 20l368 920l-192 -4l-136 -376l-236 420l-228 16l4 -68z" />
    <glyph glyph-name="Z" unicode="Z" horiz-adv-x="700" 
d="M748 -24l-768 -44l364 808l-396 -32l-28 224l844 44l-392 -844l388 28zM-40 896l16 -156l416 28l-348 -808l672 44l12 128l-404 -32l372 840z" />
    <glyph glyph-name="bracketleft" unicode="[" horiz-adv-x="400" 
d="M0 872l452 52l-16 -212l-188 -28l-44 -660l176 32l-12 -204l-400 -64zM24 840l-24 -1020l332 52l16 148l-172 -24l28 716l192 20l10 82l6 70z" />
    <glyph glyph-name="backslash" unicode="\" horiz-adv-x="700" 
d="M468 -60l-500 944l272 -40l504 -968zM496 -36l200 -48l-484 900l-184 28z" />
    <glyph glyph-name="bracketright" unicode="]" horiz-adv-x="450" 
d="M8 852l444 60l-40 -976l-408 -44l20 220l94 12q61 8 94 8l28 552l-260 -24zM40 828l-28 -144l256 32l-28 -612l-196 -20l-12 -160l197 16l155 16l36 912z" />
    <glyph glyph-name="asciicircum" unicode="^" 
d="M256 928l280 -96l12 -136l-292 96l-276 -84l20 136zM512 736l-4 68l-248 88l-236 -76l-8 -64l244 68z" />
    <glyph glyph-name="underscore" unicode="_" horiz-adv-x="600" 
d="M-4 44l644 -20l-24 -88q-98 3 -176.5 5t-168.5 2l-319 9zM-12 -28l608 -16l4 44l-588 24z" />
    <glyph glyph-name="grave" unicode="`" 
d="M436 736l-56 -88l-316 60l112 172zM408 732l-224 120l-84 -132l276 -48z" />
    <glyph glyph-name="a" unicode="a" horiz-adv-x="500" 
d="M328 564l204 92l4 -273q4 -23 4 -58v-19v-13q-2 -7 -2 -10l6 -299l-220 -12v30q-51 -22 -108 -22q-84 0 -136 41.5t-75.5 103.5t-23.5 129q0 119 92.5 217t223.5 98l27 -1zM352 552v-14l-24 1q-59 0 -148.5 -41t-128 -117t-38.5 -140q0 -134 62 -176.5t122 -42.5
q78 0 155 36v-62l160 12l-4 612zM324 478q-38 -26 -38 -73q0 -33 10.5 -41.5t27.5 -10.5v-104l-20 -2q-38 0 -77.5 27t-39.5 70q0 45 41 86t96 48z" />
    <glyph glyph-name="b" unicode="b" horiz-adv-x="525" 
d="M220 9v-17l-220 -12l8 732l-72 -16l24 120l248 104l4 -345q57 23 107 23q71 0 158.5 -47t87.5 -197q0 -68 -13 -104.5t-17.5 -45.5t-48 -74t-121.5 -93.5t-125 -28.5zM186 518l-2 366l-200 -84l-16 -68l68 36l-8 -764l152 11l8 32l31 -4q86 0 156 43.5t112 119.5t42 147
q0 108 -62.5 162t-126.5 54q-36 0 -66 -8t-61 -27zM215 399q18 63 59.5 81.5t57 23t40.5 4.5q-62 -24 -62 -79q0 -48 38 -48q29 0 55 30t35 64q6 -21 6 -45q0 -84 -41.5 -119.5t-75.5 -35.5q-36 0 -69 21.5t-42 50.5z" />
    <glyph glyph-name="c" unicode="c" horiz-adv-x="500" 
d="M430 575q52 -37 88 -116l18 -43l-181 -40q-8 40 -71 40q-124 -12 -124 -148q0 -106 68 -120q58 0 87 40.5t41 71.5l181 -37q-17 -60 -68.5 -120t-114.5 -85t-131 -25q-109 0 -187 66t-78 175q0 71 30 148t84.5 140.5t102.5 78t67 17.5t39 3q85 0 149 -46zM402 557
q-56 33 -120 33q-152 0 -223 -134t-71 -221q0 -104 75 -158t156 -54q73 0 122.5 25.5t73.5 48t48.5 54t28.5 45.5l-116 24q-33 -65 -70 -83t-63 -18q-54 0 -84.5 38t-30.5 93q0 112 59 160t109 48q66 0 79 -52l117 30q0 29 -26 63.5t-64 57.5z" />
    <glyph glyph-name="d" unicode="d" horiz-adv-x="500" 
d="M320 952l204 92l12 -661q4 -23 4 -58v-19v-13q-2 -7 -2 -10l6 -299l-220 -12v30q-51 -22 -108 -22q-84 0 -136 41.5t-75.5 103.5t-23.5 129q0 119 92.5 217t223.5 98l27 -1zM344 940l8 -402l-24 1q-59 0 -148.5 -41t-128 -117t-38.5 -140q0 -134 62 -176.5t122 -42.5
q78 0 155 36v-62l160 12l-12 1000zM324 478q-38 -26 -38 -73q0 -33 10.5 -41.5t27.5 -10.5v-104l-20 -2q-38 0 -77.5 27t-39.5 70q0 45 41 86t96 48z" />
    <glyph glyph-name="e" unicode="e" horiz-adv-x="500" 
d="M450 270l118 -142q-30 -86 -149 -117.5t-190 -31.5q-137 0 -188.5 64t-51.5 157q0 59 22.5 133t95 143t221.5 69q130 0 216 -77l-268 -320q71 0 112.5 43t61.5 79zM453 243q0 -30 -40.5 -60t-86 -49t-82.5 -19l-22 2l290 348q-92 54 -197 54q-132 0 -197.5 -70t-82 -137
t-16.5 -113q0 -98 58 -149t159 -51q136 0 214 50.5t92 82.5zM162 162q-16 9 -25 44.5t-9 67.5q0 72 33.5 109.5t93.5 37.5q49 0 93 -31zM315 384q-24 12 -49 12q-57 0 -86 -36q-30 -41 -30 -86q0 -25 15 -76z" />
    <glyph glyph-name="f" unicode="f" 
d="M298 364l-1 -118q0 -58 2.5 -149.5t2.5 -107.5l4 -89l-240 -28q-5 44 -8 96.5t-3 123.5l-5 268h-115l-28 224l151 -16l-3 53q0 197 126.5 234.5t163.5 43.5t70 6q36 0 63 -5t52 -17q25 -10 40.5 -20.5t32 -30t27.5 -68.5l-172 -112q-10 29 -31.5 54t-46.5 25
q-31 0 -44 -28t-21 -96l-5 -51h129v-188zM274 388h141l-4 144l-133 -8l4 84q5 51 20 113t74 62q57 0 90 -95l132 88q-5 12 -11 22t-15 26q-7 8 -48 32.5t-98 24.5q-71 0 -172 -33l-45 -16q-18 -8 -61 -41.5t-70 -146.5q3 -26 3 -112l-146 12l32 -160l111 4l-2 -160v-87
t1 -78q0 -39 3.5 -79.5t9.5 -79.5l188 20q-8 62 -8 222q0 33 2 125t2 117z" />
    <glyph glyph-name="g" unicode="g" horiz-adv-x="500" 
d="M536 -47q0 -233 -68.5 -318.5t-207.5 -85.5q-49 0 -107.5 19t-104 62t-45.5 132q0 85 41 162l160 -104l-2 -17q0 -29 21 -46.5t51 -17.5q59 0 67.5 44.5t8.5 96.5q0 62 -9 130q-62 -30 -125 -30q-84 0 -136 41.5t-75.5 103.5t-23.5 129q0 61 16 106.5t92.5 127
t207.5 81.5q19 0 39 -3t38 -8l150 74zM508 12l-12 572l-124 -52q-27 9 -57 9q-120 0 -211 -97t-91 -203q0 -134 64.5 -178.5t129.5 -44.5q88 0 161 50q6 -63 6 -134q0 -198 -54 -218q-20 -9 -43 -9q-46 0 -71.5 28t-25.5 73l-124 76q-13 -31 -18.5 -55.5t-5.5 -52.5
q0 -97 79 -148.5t165 -51.5q57 0 124 32.5t87.5 143t20.5 223.5v37zM358 263q-25 -7 -56 -7q-44 0 -77.5 21.5t-33.5 66.5q0 61 47.5 94t84.5 39q-21 -39 -21 -72q0 -37 54 -37z" />
    <glyph glyph-name="h" unicode="h" horiz-adv-x="600" 
d="M220 564q89 29 151 29q56 0 111 -31.5t92 -87.5t54.5 -126.5t17.5 -145.5q0 -66 -22 -202l-204 -12l1 70q0 191 -36.5 283.5t-56.5 92.5q-25 0 -47 -51t-28 -108l-2 -64q0 -17 4.5 -86t4.5 -105l-240 -28q-1 8 -4 50.5t-3 94.5q0 45 -3 78t-9 72l-13 637l200 24zM28 328
l9 -162q0 -23 5.5 -80.5t5.5 -61.5l184 20q-4 35 -7 77t-3 75q0 97 16 167t41.5 87t42.5 17q35 0 67.5 -46t47.5 -153.5t15 -178.5v-28q-3 -22 -4 -33l148 4q0 28 8.5 96t8.5 101q0 94 -35 164t-53.5 97.5t-59 52.5t-100.5 25q-69 0 -165 -36l-32 388l-160 -20z" />
    <glyph glyph-name="i" unicode="i" horiz-adv-x="250" 
d="M264 -92l-220 -12l-12 524l-72 -16l24 120l248 104zM104 924q62 0 95.5 -33.5t33.5 -63.5q0 -47 -25 -78t-43 -34l-33 -3q-65 0 -87 32.5t-25 61.5q0 46 20 77q21 36 64 41zM112 892q-56 -17 -56 -85q3 -29 29 -45.5t58 -16.5q56 8 56 87q-3 21 -28.5 41.5t-47.5 20.5z
M232 -68l-24 660l-200 -84l-16 -68l68 36l12 -556z" />
    <glyph glyph-name="j" unicode="j" horiz-adv-x="500" 
d="M372 928q45 0 87 -27t42 -70q0 -27 -19 -64q-19 -41 -44 -47l-38 -4q-66 0 -94 44q-13 18 -18 50q0 46 21 79.5t63 38.5zM536 -47q0 -233 -68.5 -318.5t-207.5 -85.5q-49 0 -107.5 19t-104 62t-45.5 132q0 85 41 162l160 -104l-2 -17q0 -29 21 -46.5t51 -17.5
q59 0 67.5 44.5t8.5 96.5v35q-3 19 -4 29l-5 66l-21 410l-72 -16l24 120l248 104zM508 12l-12 580l-200 -84l-16 -68l68 36l20 -408l6 -134q0 -198 -54 -218q-20 -9 -43 -9q-46 0 -71.5 28t-25.5 73l-124 76q-13 -31 -18.5 -55.5t-5.5 -52.5q0 -97 79 -148.5t165 -51.5
q57 0 124 32.5t87.5 143t20.5 223.5v37zM380 896q-56 -17 -56 -85q3 -29 29 -45.5t58 -16.5q56 6 56 87q-3 21 -28.5 41.5t-47.5 20.5z" />
    <glyph glyph-name="k" unicode="k" 
d="M-40 816l248 104l36 -564l204 112l212 -32l-276 -212l260 -196l12 -196l-384 276l12 -240l-232 -4l-44 848l-72 -16zM592 412l-140 20l-232 -112l-36 564l-200 -84l-16 -68l68 36l44 -880l172 4l-8 272l384 -284l-5 76q0 29 -2 42t-5 22l-138 99l-146 105z" />
    <glyph glyph-name="l" unicode="l" horiz-adv-x="250" 
d="M272 -124l-220 -12l-44 848l-72 -16l24 120l248 104zM240 -100l-56 984l-200 -84l-16 -68l68 36l44 -880z" />
    <glyph glyph-name="m" unicode="m" horiz-adv-x="850" 
d="M442 560q129 40 188 40q50 0 88.5 -22t90.5 -83q49 -63 68 -141.5t19 -151.5q0 -66 -22 -202l-204 -12l1 70q0 190 -36.5 283.5t-62.5 93.5q-9 0 -11 -15l2 -15l7 -21q26 -109 26 -182q0 -54 -22 -202l-204 -12l1 70q0 193 -53 326l-15 50l-31 -70q-13 -32 -19 -89
l-2 -64q0 -17 4.5 -86t4.5 -105l-240 -28q-8 57 -13 97t-5 68l-3 78l2 52l-9 285l192 24l28 -32q75 25 126 25q56 0 104 -29zM446 520q-55 43 -117 43q-54 0 -129 -31l-20 32l-160 -20l8 -216l9 -162q0 -23 5.5 -80.5t5.5 -61.5l184 20q-4 35 -7 77t-3 75q0 96 18.5 183.5
t54.5 87.5q33 0 70 -106t37 -272v-28q-3 -22 -4 -33l148 4q0 17 8.5 84.5t8.5 112.5q0 96 -37 167q20 81 57 81q43 0 71 -82t38 -151t10 -155v-28q-3 -22 -4 -33l148 4q0 28 8.5 96t8.5 101q0 94 -35 164t-54 98t-56.5 50.5t-86.5 22.5q-70 0 -185 -44z" />
    <glyph glyph-name="n" unicode="n" horiz-adv-x="600" 
d="M212 564q114 37 168 37q46 0 87.5 -23.5t91.5 -82.5q49 -63 68 -141.5t19 -151.5q0 -66 -22 -202l-204 -12l1 70q0 191 -36.5 283.5t-56.5 92.5q-25 0 -47 -51t-28 -108l-2 -64q0 -17 4.5 -86t4.5 -105l-240 -28q-8 57 -13 97t-5 68l-3 78l2 52l-9 285l192 24zM28 328
l9 -162q0 -23 5.5 -80.5t5.5 -61.5l184 20q-4 35 -7 77t-3 75q0 97 16 167t41.5 87t42.5 17q35 0 67.5 -46t47.5 -153.5t15 -178.5v-28q-3 -22 -4 -33l148 4q0 28 8.5 96t8.5 101q0 94 -35 164t-53.5 97.5t-59 52.5t-100.5 25q-69 0 -165 -36l-20 32l-160 -20z" />
    <glyph glyph-name="o" unicode="o" horiz-adv-x="500" 
d="M500 479q41 -61 41 -153q0 -68 -15.5 -111.5t-52 -98t-109.5 -95.5t-148 -41q-84 0 -136 41.5t-75.5 103.5t-23.5 129q0 61 16 106.5t92.5 127t206.5 81.5q38 0 101.5 -17.5t102.5 -72.5zM316 541q-76 0 -137.5 -41t-113.5 -97.5t-52 -161.5q0 -134 67 -180t129 -46
q79 0 148 46.5t108.5 119.5t39.5 144q0 52 -37.5 134t-151.5 82zM414 447q6 -21 6 -45q0 -83 -41 -119t-76 -36q-42 0 -79 28t-37 69q0 49 48.5 92.5t112.5 43.5q-62 -24 -62 -79q0 -30 10.5 -38t27.5 -10q29 0 56 31t34 63z" />
    <glyph glyph-name="p" unicode="p" horiz-adv-x="500" 
d="M212 -19l24 -393l-220 -12l-33 639l-2 36l-9 173l-72 -16l24 120l248 104l6 -90q57 28 118 28q71 0 158 -47t87 -197q0 -68 -15.5 -111.5t-62 -112t-125 -95t-126.5 -26.5zM181 17q108 0 180.5 54t108 118.5t35.5 135.5q0 107 -63 162t-126 55q-71 0 -136 -41l-26 -17
l-6 112l-200 -84l-16 -68l68 36l44 -880l160 12zM189 362q13 64 66.5 91t92.5 27q-62 -24 -62 -79q0 -30 10.5 -38t27.5 -10q29 0 56 31t34 63q6 -21 6 -45q0 -83 -41 -119t-76 -36q-36 0 -63.5 17.5t-36 38.5t-11.5 34t-3 25z" />
    <glyph glyph-name="q" unicode="q" horiz-adv-x="500" 
d="M520 620l28 -1052l-184 -4l-23 446q-62 -30 -125 -30q-84 0 -136 41.5t-75.5 103.5t-23.5 129q0 61 16 106.5t92.5 127t207.5 81.5q19 0 39 -3t38 -8zM368 68l24 -480l136 8l-32 988l-124 -52q-27 9 -57 9q-120 0 -211 -97t-91 -203q0 -134 64.5 -178.5t129.5 -44.5
q88 0 161 50zM358 263q-25 -7 -56 -7q-44 0 -77.5 21.5t-33.5 66.5q0 61 47.5 94t84.5 39q-21 -39 -21 -72q0 -37 54 -37z" />
    <glyph glyph-name="r" unicode="r" 
d="M576 476l-172 -112q-31 79 -78 79q-75 0 -75 -222q0 -20 4.5 -92.5t4.5 -108.5l-240 -28q-21 152 -21 269l2 54l-9 285l192 24l28 -32q72 23 108.5 30.5t58.5 7.5q47 0 90 -25t68.5 -52t38.5 -77zM412 400l132 88q-19 41 -30 51l-50 33q-41 24 -99 24q-75 0 -165 -36
l-20 32l-160 -20l8 -216l8 -148q0 -34 3.5 -78.5t8.5 -105.5l184 20q-4 35 -7 79t-3 79q0 37 3 78.5t8 79.5l7 44q14 58 39.5 74.5t42.5 16.5q58 0 90 -95z" />
    <glyph glyph-name="s" unicode="s" 
d="M548 372q-45 16 -171.5 52.5t-180.5 36.5q-14 0 -24 -5q-24 -18 -24 -33q0 -47 169.5 -66.5t212.5 -94t43 -120.5q0 -35 -34.5 -108.5t-195.5 -73.5q-85 0 -205 33l-108 32l-106 35l70 137q5 10 10.5 22.5t7.5 16.5q21 -19 98 -40l62 -20q45 -18 98 -18l48 5q38 6 42 13
q0 15 -40 24.5t-60 13.5t-105 14t-144.5 72t-59.5 125q0 58 29.5 112.5t80.5 79.5t128 25q95 0 167.5 -19.5t124.5 -36t143 -46.5l-62 -143q-2 -5 -6.5 -12.5zM536 404l56 116q-141 41 -238 62t-173 21q-133 0 -162.5 -66.5t-29.5 -109.5q0 -130 195 -171l99 -10
q62 -9 93 -29q28 -16 28 -53q-5 -43 -108 -43q-111 0 -215 40l-65 27l-52 -112l215 -60q111 -27 179 -27q128 0 154.5 61t26.5 90q0 95 -61.5 129t-99 44.5t-78.5 10.5q-38 0 -75 13t-74 35.5t-37 47.5q0 27 27.5 43.5t63.5 16.5q67 0 172 -24t159 -52z" />
    <glyph glyph-name="t" unicode="t" horiz-adv-x="625" 
d="M92 856l213 96l-3 -328l159 -4v-188l-165 -2q-9 -69 -9 -130q0 -103 25 -122t51 -19q28 0 51 17q21 18 21 47l-2 17l160 104q41 -77 41 -162q0 -144 -104.5 -178.5t-152.5 -34.5q-138 0 -194 68.5t-67.5 114t-11.5 111.5l-3 110v55l-144 -4l-36 220l182 -12zM125 836
l2 -240l-170 12l32 -160l136 8l-1 -99q0 -165 28 -229t80.5 -98t128.5 -34q32 0 105 19.5t106 75.5t33 105q0 52 -24 108l-124 -76q0 -68 -35.5 -84.5t-61.5 -16.5q-23 0 -43 9q-56 17 -56 170l2 73l2 73h172l-4 144l-163 -4l3 316z" />
    <glyph glyph-name="u" unicode="u" horiz-adv-x="600" 
d="M20 608l240 -28q0 -47 -4.5 -113.5t-4.5 -77.5q0 -71 7 -104.5t25.5 -76t44.5 -42.5q19 0 36.5 41.5t28 75.5t19.5 79.5t9 130.5l-1 67l204 -12l19 -122q3 -20 3 -52q0 -27 -6 -65t-16 -78.5t-23.5 -68t-44.5 -71t-85 -74.5t-139 -31q-121 0 -210.5 62.5t-105.5 152.5
t-16 164q0 109 20 243zM48 576q-17 -114 -17 -198q0 -138 35 -202.5t98 -110t164 -45.5q76 0 127.5 31t79.5 74l41 79q37 73 37 150q0 27 -8.5 83t-8.5 79l-148 4q4 -29 4 -56q0 -120 -36 -225.5t-94 -105.5q-31 0 -48 22t-23 36t-11 33q-8 42 -13 87.5t-5 92.5q0 73 10 152
z" />
    <glyph glyph-name="v" unicode="v" horiz-adv-x="700" 
d="M-52 612l268 -12l116 -308l116 300l248 -24l-252 -636l-232 8zM0 580l240 -616h176l240 580l-192 16l-132 -340l-144 352z" />
    <glyph glyph-name="w" unicode="w" horiz-adv-x="1000" 
d="M532 152l-92 -208l-228 -4l-264 672l268 -12l116 -308l69 186l-53 134l268 -12l116 -308l116 300l248 -24l-252 -636l-232 8zM538 226l102 -262h176l240 580l-192 16l-132 -340l-144 352l-188 8l28 -108l-96 -252l-144 352l-188 8l240 -616h176z" />
    <glyph glyph-name="x" unicode="x" horiz-adv-x="700" 
d="M350 93l-118 -153l-252 -8l244 323l-276 357l268 -12l134 -177l134 177l268 12l-276 -357l244 -323l-252 8zM431 254l253 322l-172 -4l-162 -212l-162 212l-172 4l253 -322l-225 -294l160 4l146 186l146 -186l160 -4z" />
    <glyph glyph-name="y" unicode="y" horiz-adv-x="650" 
d="M-40 476l196 92l196 -364l120 336l216 -84l-364 -880l-192 72l112 304zM4 464l272 -504l-112 -296l148 -48l340 832l-160 64l-140 -380l-212 396z" />
    <glyph glyph-name="z" unicode="z" horiz-adv-x="700" 
d="M720 -68h-740l360 464l-340 -4l-28 224l780 -4l-396 -496h376zM12 580l16 -156l369 -2l-353 -462h644l12 128h-396l380 488z" />
    <glyph glyph-name="braceleft" unicode="{" horiz-adv-x="400" 
d="M380 56l-24 -232q-188 136 -270 276t-82 268v18.5t10 116.5t171.5 249.5t258.5 167.5l-28 -200q-83 -58 -143 -145t-69.5 -140.5t-9.5 -73.5q0 -156 186 -305zM332 -128l24 156q-197 176 -197 340l2 33q15 126 100.5 213.5t134.5 117.5l10 82l6 70q-89 -47 -224 -170
t-152 -314l-1 -30q0 -158 96.5 -284.5t200.5 -213.5z" />
    <glyph glyph-name="bar" unicode="|" horiz-adv-x="300" 
d="M20 952l268 64l-12 -1304l-276 -44zM56 928l-32 -1224l220 36l12 1236z" />
    <glyph glyph-name="braceright" unicode="}" horiz-adv-x="400" 
d="M20 56q186 146 186 305q0 21 -13 103t-88.5 150.5t-91 82t-29.5 23.5l-28 200q94 -22 257 -167t181 -345l2 -40q0 -131 -81 -269t-271 -275zM68 -128q78 66 134.5 129.5t109.5 158t53 210.5l-1 30q-17 191 -153 315t-223 169l6 -68l10 -84q55 -34 137.5 -120.5
t97.5 -210.5l2 -33q0 -106 -62 -190.5t-135 -149.5z" />
    <glyph glyph-name="asciitilde" unicode="~" 
d="M-8 744l12 112q83 51 156 51q48 0 86 -36t90 -36q82 0 123 34.5t41 54.5l24 -172q-68 -22 -119.5 -33t-92.5 -11q-43 0 -68.5 31t-122.5 31q-36 0 -67.5 -6t-61.5 -20zM24 840l-8 -64q23 21 106 21q98 0 126 -23.5t45.5 -28.5t44.5 -5q38 0 73.5 7t80.5 25l-8 80
q0 -21 -46.5 -30t-63 -11t-34.5 -2q-73 0 -103 35t-87 35q-63 0 -126 -39z" />
    <glyph glyph-name="Adieresis" unicode="&#xc4;" 
d="M312 900l480 -1156l-204 -20l-228 532l-128 20l-200 -424l-252 -12zM48 1064q0 30 15 77t65 47q51 0 89.5 -29t38.5 -73q0 -13 -9.5 -46.5t-38 -62.5t-68.5 -29q-51 6 -71.5 44.5t-20.5 71.5zM372 1076q0 49 18 86.5t62 37.5q71 0 99.5 -37t28.5 -65q0 -13 -10 -47
t-38 -62.5t-68 -28.5q-34 0 -63 33t-29 83zM88 1060q0 -28 22.5 -46.5t53.5 -21.5q12 0 26 30t14 42q0 70 -64 76q-30 0 -41 -31t-11 -49zM312 828l-480 -956l172 4l212 424l160 -24l228 -520l144 8zM412 1072q0 -29 23 -48.5t53 -19.5q14 -1 33 45l7 27q0 69 -64 76
q-22 0 -31.5 -17t-15 -33t-5.5 -30zM308 564l48 -188l-116 16zM328 404l-24 112l-36 -100z" />
    <glyph glyph-name="Aring" unicode="&#xc5;" 
d="M312 900l480 -1156l-204 -20l-228 532l-128 20l-200 -424l-252 -12zM196 1084q0 30 15 77t65 47q51 0 89.5 -29t38.5 -73q0 -13 -9.5 -46t-38 -62.5t-68.5 -29.5q-50 4 -79 57q-13 28 -13 59zM312 828l-480 -956l172 4l212 424l160 -24l228 -520l144 8zM236 1080
q0 -28 22.5 -46.5t53.5 -21.5q12 0 26 30t14 42q0 70 -64 76q-30 0 -41 -30.5t-11 -49.5zM308 564l48 -188l-116 16zM328 404l-24 112l-36 -100z" />
    <glyph glyph-name="Ccedilla" unicode="&#xc7;" horiz-adv-x="600" 
d="M412 27q91 -66 91 -127q0 -81 -89.5 -115.5t-113.5 -40.5l-172 124q74 0 112.5 21.5t38.5 58.5q0 28 -39 67q-165 20 -209.5 116.5t-57.5 150.5t-13 114l-1 43q0 256 107 310t146.5 62.5t87.5 8.5q127 0 239.5 -57.5t134.5 -146.5l-219 -143q-23 55 -147 55
q-27 0 -57.5 -40.5t-30.5 -91.5q0 -35 22.5 -73.5t73.5 -38.5q37 0 81 21t75 84q3 -6 120 -102l59 -48q-68 -165 -239 -212zM352 50q174 29 252 178l-132 110q-18 -46 -59 -67q-30 -13 -89 -19q-75 0 -107.5 56.5t-32.5 87.5q0 61 38.5 116.5t97.5 55.5q36 0 89 -15t66 -33
l142 109q-32 81 -132.5 110.5t-155.5 29.5l-25 -1q-183 -16 -243.5 -103t-60.5 -265q0 -140 72 -240t180 -115q61 -43 61 -87q0 -66 -113 -110l100 -80q71 18 116.5 56t45.5 79q0 67 -110 147z" />
    <glyph glyph-name="Eacute" unicode="&#xc9;" 
d="M256 64l512 -24l-4 -212l-712 36l-40 736l-68 -12l12 232l592 88l12 -212l-336 -56l8 -152l332 56l12 -176l-336 -64zM116 1032l260 144l112 -172l-316 -60zM144 1028l32 -60l276 48l-84 132zM232 28l-15 296l335 64l-12 132l-330 -64l-10 204l332 56l-8 164l-540 -80
l-16 -176l64 8l48 -744l664 -32q1 7 1.5 16.5t0.5 17.5q0 68 -6 130l-69 1z" />
    <glyph glyph-name="Ntilde" unicode="&#xd1;" 
d="M208 920l128 -324l-28 296l304 -12l8 -1096l-180 -12l-184 520l4 -428l-232 -4l-28 936l-84 20l-4 124zM16 1024l12 112q83 51 156 51q44 0 83.5 -36t92.5 -36q83 0 139 49q25 19 25 40l24 -172q-130 -44 -212 -44q-43 0 -69.5 31t-121.5 31q-76 0 -129 -26zM584 848
l-240 16l32 -424l-192 444l-244 28l4 -68l88 -12l20 -948l172 4l16 532l208 -612l144 8zM48 1120l-8 -64q27 21 106 21q98 0 132.5 -28.5t83.5 -28.5q38 0 73.5 7t80.5 25l-8 80q0 -21 -53.5 -32t-90.5 -11q-72 0 -103.5 35t-86.5 35q-63 0 -126 -39z" />
    <glyph glyph-name="Odieresis" unicode="&#xd6;" horiz-adv-x="750" 
d="M680 732q116 -89 116 -236q0 -105 -40 -180.5t-105.5 -156.5t-166.5 -134.5t-193 -53.5q-105 0 -180 50t-109.5 135.5t-34.5 171.5q0 154 109.5 278.5t208 167.5t167.5 43q116 0 228 -85zM128 1064q0 30 15 77t65 47q51 0 89.5 -29.5t38.5 -72.5q0 -13 -9.5 -46
t-37.5 -62.5t-69 -29.5q-44 5 -68 38.5t-24 77.5zM452 1076q0 45 16 82q20 42 64 42q71 0 99.5 -37t28.5 -65q0 -15 -9.5 -47.5t-38 -61.5t-68.5 -29q-34 0 -63 33t-29 83zM656 696q-31 25 -62 40.5t-56 22t-39 8.5t-33 2q-81 0 -168.5 -50t-184 -154t-96.5 -254
q0 -73 28 -142t84 -110t136 -41q135 0 238.5 79t143.5 132.5t68.5 126.5t28.5 145q0 125 -88 195zM168 1060q0 -28 22.5 -46.5t53.5 -21.5q15 0 27.5 31.5t12.5 40.5q0 70 -64 76q-28 0 -40 -31t-12 -49zM492 1072q0 -29 18.5 -43.5t30 -19.5t27.5 -5q14 -1 33 45l7 27
q0 69 -64 76q-22 0 -31.5 -17t-15 -33t-5.5 -30zM584 606q3 -14 5 -27.5t2 -28.5q0 -59 -30.5 -106.5t-86.5 -47.5q-39 0 -76 29.5t-37 85.5q0 65 40.5 106t103.5 41q-75 -41 -75 -109q0 -34 16.5 -51.5t36.5 -17.5q37 0 65.5 42t35.5 84z" />
    <glyph glyph-name="Udieresis" unicode="&#xdc;" horiz-adv-x="650" 
d="M248 912l-3 -105q0 -200 18 -339.5t36.5 -179.5t46.5 -40q35 0 59 61t24 185q0 16 -4 92.5t-4 105.5l-7 118l-6 82l260 -20q22 -139 22 -320q0 -203 -30 -295t-95.5 -153t-105.5 -84t-125 -23q-140 0 -215 64t-102.5 216.5t-27.5 316.5q0 124 11 202l-84 20l-4 124z
M48 1064q0 30 15 77t65 47q51 0 89.5 -29t38.5 -73q0 -13 -9.5 -46.5t-38 -62.5t-68.5 -29q-51 6 -71.5 44.5t-20.5 71.5zM372 1076q0 49 18 86.5t62 37.5q71 0 99.5 -37t28.5 -65q0 -13 -10 -47t-38 -62.5t-68 -28.5q-34 0 -63 33t-29 83zM88 1060q0 -28 22.5 -46.5
t53.5 -21.5q12 0 26 30t14 42q0 70 -64 76q-30 0 -41 -31t-11 -49zM220 888l-280 24l4 -68l88 -12q-9 -50 -9 -185q0 -165 23 -336.5t94 -222.5t180 -51q169 0 221.5 74t74.5 117t32 87t10 99l3 117q0 134 -11 252l-6 65l-200 16q5 -32 9.5 -87t4.5 -119l2 -135
q0 -164 -25.5 -238t-95.5 -74q-32 0 -56 25t-33 68t-18.5 111t-9.5 161q0 35 -4 98t-4 91q0 72 6 123zM412 1072q0 -29 23 -48.5t53 -19.5q14 -1 33 45l7 27q0 69 -64 76q-22 0 -31.5 -17t-15 -33t-5.5 -30z" />
    <glyph glyph-name="aacute" unicode="&#xe1;" horiz-adv-x="500" 
d="M328 564l204 92l4 -273q4 -23 4 -58v-19v-13q-2 -7 -2 -10l6 -299l-220 -12v30q-51 -22 -108 -22q-84 0 -136 41.5t-75.5 103.5t-23.5 129q0 119 92.5 217t223.5 98l27 -1zM64 736l260 144l112 -172l-316 -60zM352 552v-14l-24 1q-59 0 -148.5 -41t-128 -117t-38.5 -140
q0 -134 62 -176.5t122 -42.5q78 0 155 36v-62l160 12l-4 612zM92 732l32 -60l276 48l-84 132zM324 478q-38 -26 -38 -73q0 -33 10.5 -41.5t27.5 -10.5v-104l-20 -2q-38 0 -77.5 27t-39.5 70q0 45 41 86t96 48z" />
    <glyph glyph-name="agrave" unicode="&#xe0;" horiz-adv-x="500" 
d="M328 564l204 92l4 -273q4 -23 4 -58v-19v-13q-2 -7 -2 -10l6 -299l-220 -12v30q-51 -22 -108 -22q-84 0 -136 41.5t-75.5 103.5t-23.5 129q0 119 92.5 217t223.5 98l27 -1zM436 736l-56 -88l-316 60l112 172zM352 552v-14l-24 1q-59 0 -148.5 -41t-128 -117t-38.5 -140
q0 -134 62 -176.5t122 -42.5q78 0 155 36v-62l160 12l-4 612zM408 732l-224 120l-84 -132l276 -48zM324 478q-38 -26 -38 -73q0 -33 10.5 -41.5t27.5 -10.5v-104l-20 -2q-38 0 -77.5 27t-39.5 70q0 45 41 86t96 48z" />
    <glyph glyph-name="acircumflex" unicode="&#xe2;" horiz-adv-x="500" 
d="M328 564l204 92l4 -273q4 -23 4 -58v-19v-13q-2 -7 -2 -10l6 -299l-220 -12v30q-51 -22 -108 -22q-84 0 -136 41.5t-75.5 103.5t-23.5 129q0 119 92.5 217t223.5 98l27 -1zM256 928l280 -96l12 -136l-292 96l-276 -84l20 136zM352 552v-14l-24 1q-59 0 -148.5 -41
t-128 -117t-38.5 -140q0 -134 62 -176.5t122 -42.5q78 0 155 36v-62l160 12l-4 612zM512 736l-4 68l-248 88l-236 -76l-8 -64l244 68zM324 478q-38 -26 -38 -73q0 -33 10.5 -41.5t27.5 -10.5v-104l-20 -2q-38 0 -77.5 27t-39.5 70q0 45 41 86t96 48z" />
    <glyph glyph-name="adieresis" unicode="&#xe4;" horiz-adv-x="500" 
d="M328 564l204 92l4 -273q4 -23 4 -58v-19v-13q-2 -7 -2 -10l6 -299l-220 -12v30q-51 -22 -108 -22q-84 0 -136 41.5t-75.5 103.5t-23.5 129q0 119 92.5 217t223.5 98l27 -1zM-16 800q0 30 15 77t65 47q51 0 89.5 -29.5t38.5 -72.5q0 -13 -18 -75.5t-98 -62.5
q-44 5 -68 38.5t-24 77.5zM308 812q0 30 15 77t65 47q52 0 90 -29.5t38 -72.5q0 -13 -17 -75.5t-99 -62.5q-52 4 -79 57q-13 29 -13 59zM24 796q0 -28 24.5 -48t51.5 -20q16 0 28 31t12 41q0 70 -64 76q-30 0 -41 -31t-11 -49zM352 552v-14l-24 1q-59 0 -148.5 -41
t-128 -117t-38.5 -140q0 -134 62 -176.5t122 -42.5q78 0 155 36v-62l160 12l-4 612zM348 808q0 -29 18.5 -43.5t30 -19.5t27.5 -5q11 0 24.5 28t15.5 44q0 70 -64 76q-22 0 -31.5 -16.5t-15 -33t-5.5 -30.5zM324 478q-38 -26 -38 -73q0 -33 10.5 -41.5t27.5 -10.5v-104
l-20 -2q-38 0 -77.5 27t-39.5 70q0 45 41 86t96 48z" />
    <glyph glyph-name="atilde" unicode="&#xe3;" horiz-adv-x="500" 
d="M328 564l204 92l4 -273q4 -23 4 -58v-19v-13q-2 -7 -2 -10l6 -299l-220 -12v30q-51 -22 -108 -22q-84 0 -136 41.5t-75.5 103.5t-23.5 129q0 119 92.5 217t223.5 98l27 -1zM-8 744l12 112q83 51 156 51q48 0 86 -36t90 -36q82 0 123 34.5t41 54.5l24 -172
q-68 -22 -119.5 -33t-92.5 -11q-43 0 -68.5 31t-122.5 31q-36 0 -67.5 -6t-61.5 -20zM352 552v-14l-24 1q-59 0 -148.5 -41t-128 -117t-38.5 -140q0 -134 62 -176.5t122 -42.5q78 0 155 36v-62l160 12l-4 612zM24 840l-8 -64q23 21 106 21q98 0 126 -23.5t45.5 -28.5
t44.5 -5q38 0 73.5 7t80.5 25l-8 80q0 -21 -46.5 -30t-63 -11t-34.5 -2q-73 0 -103 35t-87 35q-63 0 -126 -39zM324 478q-38 -26 -38 -73q0 -33 10.5 -41.5t27.5 -10.5v-104l-20 -2q-38 0 -77.5 27t-39.5 70q0 45 41 86t96 48z" />
    <glyph glyph-name="aring" unicode="&#xe5;" horiz-adv-x="500" 
d="M328 564l204 92l4 -273q4 -23 4 -58v-19v-13q-2 -7 -2 -10l6 -299l-220 -12v30q-51 -22 -108 -22q-84 0 -136 41.5t-75.5 103.5t-23.5 129q0 119 92.5 217t223.5 98l27 -1zM164 812q0 30 15 77t65 47q52 0 90 -29.5t38 -72.5q0 -13 -17 -75.5t-99 -62.5q-52 4 -72 43.5
t-20 72.5zM352 552v-14l-24 1q-59 0 -148.5 -41t-128 -117t-38.5 -140q0 -134 62 -176.5t122 -42.5q78 0 155 36v-62l160 12l-4 612zM204 808q0 -29 24 -48.5t52 -19.5q11 0 24.5 28t15.5 44q0 70 -64 76q-22 0 -39 -29q-13 -25 -13 -51zM324 478q-38 -26 -38 -73
q0 -33 10.5 -41.5t27.5 -10.5v-104l-20 -2q-38 0 -77.5 27t-39.5 70q0 45 41 86t96 48z" />
    <glyph glyph-name="ccedilla" unicode="&#xe7;" horiz-adv-x="600" 
d="M412 27q91 -66 91 -127q0 -81 -89.5 -115.5t-113.5 -40.5l-172 124q74 0 112.5 21.5t38.5 58.5q0 28 -39 67q-165 20 -209.5 116.5t-57.5 150.5t-13 114l-1 43q0 256 107 310t146.5 62.5t87.5 8.5q127 0 239.5 -57.5t134.5 -146.5l-219 -143q-23 55 -147 55
q-27 0 -57.5 -40.5t-30.5 -91.5q0 -35 22.5 -73.5t73.5 -38.5q37 0 81 21t75 84q3 -6 120 -102l59 -48q-68 -165 -239 -212zM352 50q174 29 252 178l-132 110q-18 -46 -59 -67q-30 -13 -89 -19q-75 0 -107.5 56.5t-32.5 87.5q0 61 38.5 116.5t97.5 55.5q36 0 89 -15t66 -33
l142 109q-32 81 -132.5 110.5t-155.5 29.5l-25 -1q-183 -16 -243.5 -103t-60.5 -265q0 -140 72 -240t180 -115q61 -43 61 -87q0 -66 -113 -110l100 -80q71 18 116.5 56t45.5 79q0 67 -110 147z" />
    <glyph glyph-name="eacute" unicode="&#xe9;" horiz-adv-x="500" 
d="M450 270l118 -142q-30 -86 -149 -117.5t-190 -31.5q-137 0 -188.5 64t-51.5 157q0 59 22.5 133t95 143t221.5 69q130 0 216 -77l-268 -320q71 0 112.5 43t61.5 79zM64 736l260 144l112 -172l-316 -60zM92 732l32 -60l276 48l-84 132zM453 243q0 -30 -40.5 -60t-86 -49
t-82.5 -19l-22 2l290 348q-92 54 -197 54q-132 0 -197.5 -70t-82 -137t-16.5 -113q0 -98 58 -149t159 -51q136 0 214 50.5t92 82.5zM162 162q-16 9 -25 44.5t-9 67.5q0 72 33.5 109.5t93.5 37.5q49 0 93 -31zM315 384q-24 12 -49 12q-57 0 -86 -36q-30 -41 -30 -86
q0 -25 15 -76z" />
    <glyph glyph-name="egrave" unicode="&#xe8;" horiz-adv-x="500" 
d="M450 270l118 -142q-30 -86 -149 -117.5t-190 -31.5q-137 0 -188.5 64t-51.5 157q0 59 22.5 133t95 143t221.5 69q130 0 216 -77l-268 -320q71 0 112.5 43t61.5 79zM436 736l-56 -88l-316 60l112 172zM408 732l-224 120l-84 -132l276 -48zM453 243q0 -30 -40.5 -60
t-86 -49t-82.5 -19l-22 2l290 348q-92 54 -197 54q-132 0 -197.5 -70t-82 -137t-16.5 -113q0 -98 58 -149t159 -51q136 0 214 50.5t92 82.5zM162 162q-16 9 -25 44.5t-9 67.5q0 72 33.5 109.5t93.5 37.5q49 0 93 -31zM315 384q-24 12 -49 12q-57 0 -86 -36q-30 -41 -30 -86
q0 -25 15 -76z" />
    <glyph glyph-name="ecircumflex" unicode="&#xea;" horiz-adv-x="500" 
d="M450 270l118 -142q-30 -86 -149 -117.5t-190 -31.5q-137 0 -188.5 64t-51.5 157q0 59 22.5 133t95 143t221.5 69q130 0 216 -77l-268 -320q71 0 112.5 43t61.5 79zM256 928l280 -96l12 -136l-292 96l-276 -84l20 136zM512 736l-4 68l-248 88l-236 -76l-8 -64l244 68z
M453 243q0 -30 -40.5 -60t-86 -49t-82.5 -19l-22 2l290 348q-92 54 -197 54q-132 0 -197.5 -70t-82 -137t-16.5 -113q0 -98 58 -149t159 -51q136 0 214 50.5t92 82.5zM162 162q-16 9 -25 44.5t-9 67.5q0 72 33.5 109.5t93.5 37.5q49 0 93 -31zM315 384q-24 12 -49 12
q-57 0 -86 -36q-30 -41 -30 -86q0 -25 15 -76z" />
    <glyph glyph-name="edieresis" unicode="&#xeb;" horiz-adv-x="500" 
d="M450 270l118 -142q-30 -86 -149 -117.5t-190 -31.5q-137 0 -188.5 64t-51.5 157q0 59 22.5 133t95 143t221.5 69q130 0 216 -77l-268 -320q71 0 112.5 43t61.5 79zM-16 800q0 30 15 77t65 47q51 0 89.5 -29.5t38.5 -72.5q0 -13 -18 -75.5t-98 -62.5q-44 5 -68 38.5
t-24 77.5zM308 812q0 30 15 77t65 47q52 0 90 -29.5t38 -72.5q0 -13 -17 -75.5t-99 -62.5q-52 4 -79 57q-13 29 -13 59zM453 243q0 -30 -40.5 -60t-86 -49t-82.5 -19l-22 2l290 348q-92 54 -197 54q-132 0 -197.5 -70t-82 -137t-16.5 -113q0 -98 58 -149t159 -51
q136 0 214 50.5t92 82.5zM24 796q0 -28 24.5 -48t51.5 -20q16 0 28 31t12 41q0 70 -64 76q-30 0 -41 -31t-11 -49zM348 808q0 -29 18.5 -43.5t30 -19.5t27.5 -5q11 0 24.5 28t15.5 44q0 70 -64 76q-22 0 -31.5 -16.5t-15 -33t-5.5 -30.5zM162 162q-16 9 -25 44.5t-9 67.5
q0 72 33.5 109.5t93.5 37.5q49 0 93 -31zM315 384q-24 12 -49 12q-57 0 -86 -36q-30 -41 -30 -86q0 -25 15 -76z" />
    <glyph glyph-name="iacute" unicode="&#xed;" horiz-adv-x="250" 
d="M264 -92l-220 -12l-12 524l-72 -16l24 120l248 104zM64 736l260 144l112 -172l-316 -60zM92 732l32 -60l276 48l-84 132zM232 -68l-24 660l-200 -84l-16 -68l68 36l12 -556z" />
    <glyph glyph-name="igrave" unicode="&#xec;" horiz-adv-x="250" 
d="M264 -92l-220 -12l-12 524l-72 -16l24 120l248 104zM436 736l-56 -88l-316 60l112 172zM408 732l-224 120l-84 -132l276 -48zM232 -68l-24 660l-200 -84l-16 -68l68 36l12 -556z" />
    <glyph glyph-name="icircumflex" unicode="&#xee;" horiz-adv-x="250" 
d="M264 -92l-220 -12l-12 524l-72 -16l24 120l248 104zM108 916l280 -96l12 -136l-292 96l-276 -84l20 136zM364 724l-4 68l-248 88l-236 -76l-8 -64l244 68zM232 -68l-24 660l-200 -84l-16 -68l68 36l12 -556z" />
    <glyph glyph-name="idieresis" unicode="&#xef;" horiz-adv-x="250" 
d="M264 -92l-220 -12l-12 524l-72 -16l24 120l248 104zM-164 804q0 49 18 86.5t62 37.5q69 0 111 -51q17 -23 17 -51q0 -13 -17 -75.5t-99 -62.5q-20 0 -36.5 10t-36 36t-19.5 70zM160 816q0 30 15 77t65 47q52 0 90 -30t38 -72q0 -15 -18 -76.5t-98 -61.5q-52 6 -79 57
q-13 28 -13 59zM-124 800q0 -28 24 -49q13 -9 24.5 -14t27.5 -5q15 -1 27.5 31t12.5 41q0 69 -64 76q-29 0 -46 -44q-6 -20 -6 -36zM232 -68l-24 660l-200 -84l-16 -68l68 36l12 -556zM200 812q0 -29 24 -48.5t52 -19.5q11 0 24.5 27.5t15.5 44.5q0 70 -64 76
q-22 0 -31.5 -16.5t-15 -33t-5.5 -30.5z" />
    <glyph glyph-name="ntilde" unicode="&#xf1;" horiz-adv-x="600" 
d="M212 564q114 37 168 37q46 0 87.5 -23.5t91.5 -82.5q49 -63 68 -141.5t19 -151.5q0 -66 -22 -202l-204 -12l1 70q0 191 -36.5 283.5t-56.5 92.5q-25 0 -47 -51t-28 -108l-2 -64q0 -17 4.5 -86t4.5 -105l-240 -28q-8 57 -13 97t-5 68l-3 78l2 52l-9 285l192 24zM-8 744
l12 112q83 51 156 51q48 0 86 -36t90 -36q82 0 123 34.5t41 54.5l24 -172q-68 -22 -119.5 -33t-92.5 -11q-43 0 -68.5 31t-122.5 31q-36 0 -67.5 -6t-61.5 -20zM28 328l9 -162q0 -23 5.5 -80.5t5.5 -61.5l184 20q-4 35 -7 77t-3 75q0 97 16 167t41.5 87t42.5 17
q35 0 67.5 -46t47.5 -153.5t15 -178.5v-28q-3 -22 -4 -33l148 4q0 28 8.5 96t8.5 101q0 94 -35 164t-53.5 97.5t-59 52.5t-100.5 25q-69 0 -165 -36l-20 32l-160 -20zM24 840l-8 -64q23 21 106 21q98 0 126 -23.5t45.5 -28.5t44.5 -5q38 0 73.5 7t80.5 25l-8 80
q0 -21 -46.5 -30t-63 -11t-34.5 -2q-73 0 -103 35t-87 35q-63 0 -126 -39z" />
    <glyph glyph-name="oacute" unicode="&#xf3;" horiz-adv-x="500" 
d="M500 479q41 -61 41 -153q0 -68 -15.5 -111.5t-52 -98t-109.5 -95.5t-148 -41q-84 0 -136 41.5t-75.5 103.5t-23.5 129q0 61 16 106.5t92.5 127t206.5 81.5q38 0 101.5 -17.5t102.5 -72.5zM64 736l260 144l112 -172l-316 -60zM92 732l32 -60l276 48l-84 132zM316 541
q-76 0 -137.5 -41t-113.5 -97.5t-52 -161.5q0 -134 67 -180t129 -46q79 0 148 46.5t108.5 119.5t39.5 144q0 52 -37.5 134t-151.5 82zM414 447q6 -21 6 -45q0 -83 -41 -119t-76 -36q-42 0 -79 28t-37 69q0 49 48.5 92.5t112.5 43.5q-62 -24 -62 -79q0 -30 10.5 -38t27.5 -10
q29 0 56 31t34 63z" />
    <glyph glyph-name="ograve" unicode="&#xf2;" horiz-adv-x="500" 
d="M500 479q41 -61 41 -153q0 -68 -15.5 -111.5t-52 -98t-109.5 -95.5t-148 -41q-84 0 -136 41.5t-75.5 103.5t-23.5 129q0 61 16 106.5t92.5 127t206.5 81.5q38 0 101.5 -17.5t102.5 -72.5zM436 736l-56 -88l-316 60l112 172zM408 732l-224 120l-84 -132l276 -48zM316 541
q-76 0 -137.5 -41t-113.5 -97.5t-52 -161.5q0 -134 67 -180t129 -46q79 0 148 46.5t108.5 119.5t39.5 144q0 52 -37.5 134t-151.5 82zM414 447q6 -21 6 -45q0 -83 -41 -119t-76 -36q-42 0 -79 28t-37 69q0 49 48.5 92.5t112.5 43.5q-62 -24 -62 -79q0 -30 10.5 -38t27.5 -10
q29 0 56 31t34 63z" />
    <glyph glyph-name="ocircumflex" unicode="&#xf4;" horiz-adv-x="500" 
d="M500 479q41 -61 41 -153q0 -68 -15.5 -111.5t-52 -98t-109.5 -95.5t-148 -41q-84 0 -136 41.5t-75.5 103.5t-23.5 129q0 61 16 106.5t92.5 127t206.5 81.5q38 0 101.5 -17.5t102.5 -72.5zM256 928l280 -96l12 -136l-292 96l-276 -84l20 136zM512 736l-4 68l-248 88
l-236 -76l-8 -64l244 68zM316 541q-76 0 -137.5 -41t-113.5 -97.5t-52 -161.5q0 -134 67 -180t129 -46q79 0 148 46.5t108.5 119.5t39.5 144q0 52 -37.5 134t-151.5 82zM414 447q6 -21 6 -45q0 -83 -41 -119t-76 -36q-42 0 -79 28t-37 69q0 49 48.5 92.5t112.5 43.5
q-62 -24 -62 -79q0 -30 10.5 -38t27.5 -10q29 0 56 31t34 63z" />
    <glyph glyph-name="odieresis" unicode="&#xf6;" horiz-adv-x="500" 
d="M500 479q41 -61 41 -153q0 -68 -15.5 -111.5t-52 -98t-109.5 -95.5t-148 -41q-84 0 -136 41.5t-75.5 103.5t-23.5 129q0 61 16 106.5t92.5 127t206.5 81.5q38 0 101.5 -17.5t102.5 -72.5zM-16 800q0 30 15 77t65 47q51 0 89.5 -29.5t38.5 -72.5q0 -13 -18 -75.5
t-98 -62.5q-44 5 -68 38.5t-24 77.5zM308 812q0 30 15 77t65 47q52 0 90 -29.5t38 -72.5q0 -13 -17 -75.5t-99 -62.5q-52 4 -79 57q-13 29 -13 59zM316 541q-76 0 -137.5 -41t-113.5 -97.5t-52 -161.5q0 -134 67 -180t129 -46q79 0 148 46.5t108.5 119.5t39.5 144
q0 52 -37.5 134t-151.5 82zM24 796q0 -28 24.5 -48t51.5 -20q16 0 28 31t12 41q0 70 -64 76q-30 0 -41 -31t-11 -49zM348 808q0 -29 18.5 -43.5t30 -19.5t27.5 -5q11 0 24.5 28t15.5 44q0 70 -64 76q-22 0 -31.5 -16.5t-15 -33t-5.5 -30.5zM414 447q6 -21 6 -45
q0 -83 -41 -119t-76 -36q-42 0 -79 28t-37 69q0 49 48.5 92.5t112.5 43.5q-62 -24 -62 -79q0 -30 10.5 -38t27.5 -10q29 0 56 31t34 63z" />
    <glyph glyph-name="otilde" unicode="&#xf5;" horiz-adv-x="500" 
d="M500 479q41 -61 41 -153q0 -68 -15.5 -111.5t-52 -98t-109.5 -95.5t-148 -41q-84 0 -136 41.5t-75.5 103.5t-23.5 129q0 61 16 106.5t92.5 127t206.5 81.5q38 0 101.5 -17.5t102.5 -72.5zM-8 744l12 112q83 51 156 51q48 0 86 -36t90 -36q82 0 123 34.5t41 54.5l24 -172
q-68 -22 -119.5 -33t-92.5 -11q-43 0 -68.5 31t-122.5 31q-36 0 -67.5 -6t-61.5 -20zM316 541q-76 0 -137.5 -41t-113.5 -97.5t-52 -161.5q0 -134 67 -180t129 -46q79 0 148 46.5t108.5 119.5t39.5 144q0 52 -37.5 134t-151.5 82zM24 840l-8 -64q23 21 106 21
q98 0 126 -23.5t45.5 -28.5t44.5 -5q38 0 73.5 7t80.5 25l-8 80q0 -21 -46.5 -30t-63 -11t-34.5 -2q-73 0 -103 35t-87 35q-63 0 -126 -39zM414 447q6 -21 6 -45q0 -83 -41 -119t-76 -36q-42 0 -79 28t-37 69q0 49 48.5 92.5t112.5 43.5q-62 -24 -62 -79q0 -30 10.5 -38
t27.5 -10q29 0 56 31t34 63z" />
    <glyph glyph-name="uacute" unicode="&#xfa;" horiz-adv-x="600" 
d="M20 608l240 -28q0 -47 -4.5 -113.5t-4.5 -77.5q0 -71 7 -104.5t25.5 -76t44.5 -42.5q19 0 36.5 41.5t28 75.5t19.5 79.5t9 130.5l-1 67l204 -12l19 -122q3 -20 3 -52q0 -27 -6 -65t-16 -78.5t-23.5 -68t-44.5 -71t-85 -74.5t-139 -31q-121 0 -210.5 62.5t-105.5 152.5
t-16 164q0 109 20 243zM156 744l260 144l112 -172l-316 -60zM184 740l32 -60l276 48l-84 132zM48 576q-17 -114 -17 -198q0 -138 35 -202.5t98 -110t164 -45.5q76 0 127.5 31t79.5 74l41 79q37 73 37 150q0 27 -8.5 83t-8.5 79l-148 4q4 -29 4 -56q0 -120 -36 -225.5
t-94 -105.5q-31 0 -48 22t-23 36t-11 33q-8 42 -13 87.5t-5 92.5q0 73 10 152z" />
    <glyph glyph-name="ugrave" unicode="&#xf9;" horiz-adv-x="600" 
d="M20 608l240 -28q0 -47 -4.5 -113.5t-4.5 -77.5q0 -71 7 -104.5t25.5 -76t44.5 -42.5q19 0 36.5 41.5t28 75.5t19.5 79.5t9 130.5l-1 67l204 -12l19 -122q3 -20 3 -52q0 -27 -6 -65t-16 -78.5t-23.5 -68t-44.5 -71t-85 -74.5t-139 -31q-121 0 -210.5 62.5t-105.5 152.5
t-16 164q0 109 20 243zM512 736l-56 -88l-316 60l112 172zM484 732l-224 120l-84 -132l276 -48zM48 576q-17 -114 -17 -198q0 -138 35 -202.5t98 -110t164 -45.5q76 0 127.5 31t79.5 74l41 79q37 73 37 150q0 27 -8.5 83t-8.5 79l-148 4q4 -29 4 -56q0 -120 -36 -225.5
t-94 -105.5q-31 0 -48 22t-23 36t-11 33q-8 42 -13 87.5t-5 92.5q0 73 10 152z" />
    <glyph glyph-name="ucircumflex" unicode="&#xfb;" horiz-adv-x="600" 
d="M20 608l240 -28q0 -47 -4.5 -113.5t-4.5 -77.5q0 -71 7 -104.5t25.5 -76t44.5 -42.5q19 0 36.5 41.5t28 75.5t19.5 79.5t9 130.5l-1 67l204 -12l19 -122q3 -20 3 -52q0 -27 -6 -65t-16 -78.5t-23.5 -68t-44.5 -71t-85 -74.5t-139 -31q-121 0 -210.5 62.5t-105.5 152.5
t-16 164q0 109 20 243zM300 924l280 -96l12 -136l-292 96l-276 -84l20 136zM556 732l-4 68l-248 88l-236 -76l-8 -64l244 68zM48 576q-17 -114 -17 -198q0 -138 35 -202.5t98 -110t164 -45.5q76 0 127.5 31t79.5 74l41 79q37 73 37 150q0 27 -8.5 83t-8.5 79l-148 4
q4 -29 4 -56q0 -120 -36 -225.5t-94 -105.5q-31 0 -48 22t-23 36t-11 33q-8 42 -13 87.5t-5 92.5q0 73 10 152z" />
    <glyph glyph-name="udieresis" unicode="&#xfc;" horiz-adv-x="600" 
d="M20 608l240 -28q0 -47 -4.5 -113.5t-4.5 -77.5q0 -71 7 -104.5t25.5 -76t44.5 -42.5q19 0 36.5 41.5t28 75.5t19.5 79.5t9 130.5l-1 67l204 -12l19 -122q3 -20 3 -52q0 -27 -6 -65t-16 -78.5t-23.5 -68t-44.5 -71t-85 -74.5t-139 -31q-121 0 -210.5 62.5t-105.5 152.5
t-16 164q0 109 20 243zM36 800q0 30 15 77t65 47q52 0 90 -30t38 -72q0 -13 -17 -75.5t-99 -62.5q-52 6 -79 57q-13 28 -13 59zM360 812q0 30 15 77t65 47q51 0 89.5 -29.5t38.5 -72.5q0 -13 -9.5 -46t-38 -62.5t-68.5 -29.5q-51 4 -71.5 44.5t-20.5 71.5zM76 796
q0 -30 24.5 -49t51.5 -19q14 0 33 45l7 27q0 70 -64 76q-22 0 -31.5 -17t-15 -33t-5.5 -30zM48 576q-17 -114 -17 -198q0 -138 35 -202.5t98 -110t164 -45.5q76 0 127.5 31t79.5 74l41 79q37 73 37 150q0 27 -8.5 83t-8.5 79l-148 4q4 -29 4 -56q0 -120 -36 -225.5
t-94 -105.5q-31 0 -48 22t-23 36t-11 33q-8 42 -13 87.5t-5 92.5q0 73 10 152zM400 808q0 -28 22.5 -46.5t53.5 -21.5q12 0 26 30t14 42q0 70 -64 76q-30 0 -41 -30.5t-11 -49.5z" />
    <glyph glyph-name="dagger" unicode="&#x2020;" horiz-adv-x="400" 
d="M8 648l108 8l80 140l76 -136l124 -4l8 -164l-128 -4l-84 -252l-68 252h-116v160zM40 524l112 -4l40 -180l56 184h116l8 88h-120l-52 112l-52 -108l-108 -4v-88z" />
    <glyph glyph-name="cent" unicode="&#xa2;" horiz-adv-x="600" 
d="M220 20q-118 12 -166.5 76t-71 137t-22.5 163l-1 43q0 196 85.5 276.5t183.5 98.5l4 102q73 0 112 -1t64 -3l-4 -112q144 -25 200.5 -81t69.5 -103l-219 -143q-23 55 -147 55q-27 0 -57.5 -40.5t-30.5 -91.5q0 -35 22.5 -73.5t73.5 -38.5q37 0 81 21t75 84q3 -6 120 -102
l59 -48q-51 -123 -112.5 -156t-86 -42.5t-52.5 -16.5l-4 -84h-180zM244 44v-80h124l4 89q156 31 232 175l-132 110q-18 -46 -59 -67q-30 -13 -89 -19q-75 0 -107.5 56.5t-32.5 87.5q0 61 38.5 116.5t97.5 55.5q36 0 89 -15t66 -33l142 109q-22 58 -91.5 92t-149.5 43v120
l-124 4l-4 -127q-189 -31 -218.5 -143t-29.5 -218q0 -143 67.5 -242t176.5 -114z" />
    <glyph glyph-name="sterling" unicode="&#xa3;" 
d="M288 52l480 -12l-4 -212l-712 36q-3 23 -3 141l1 355h-115l-28 224l151 -16l-3 53q0 197 126.5 234.5t163.5 43.5t70 6q36 0 63 -5t52 -17q25 -10 40.5 -20.5t32 -30t27.5 -68.5l-172 -112q-10 29 -31.5 54t-46.5 25q-31 0 -44 -28t-21 -96l-5 -51h129v-188l-141 -4
q0 -24 -3.5 -77t-3.5 -79l-4 -62l-1 -44zM256 24l-3 50l3 70l13 160l5 84h141l-4 144l-133 -8l4 84q5 51 20 113t74 62q57 0 90 -95l132 88q-5 12 -11 22t-15 26q-7 8 -48 32.5t-98 24.5q-71 0 -172 -33l-45 -16q-18 -8 -61 -41.5t-70 -146.5q3 -26 3 -112l-146 12l32 -160
l111 4v-92l-1 -81l-1 -171q0 -133 4 -156l664 -32q1 7 1.5 16.5t0.5 17.5q0 68 -6 130q-142 0 -256 1t-228 3z" />
    <glyph glyph-name="bullet" unicode="&#x2022;" horiz-adv-x="200" 
d="M80 600q62 0 95.5 -33.5t33.5 -63.5q0 -46 -24.5 -77t-38.5 -34l-38 -4q-100 0 -112 94q0 46 20 77q21 36 64 41zM88 568q-36 0 -46 -34t-10 -51q3 -29 29 -45.5t58 -16.5q56 6 56 87q-4 31 -50 52q-22 8 -37 8z" />
    <glyph glyph-name="germandbls" unicode="&#xdf;" horiz-adv-x="600" 
d="M92 608q-8 32 -8 60q0 53 29 96.5t78 65.5l53 18q84 30 158 30q159 0 191.5 -67t32.5 -83q0 -65 -98 -184q69 -9 129.5 -104.5t60.5 -164.5q0 -147 -207 -233l-79 197q68 41 68 89q0 20 -28.5 52t-47.5 36q-37 -35 -68 -48l108 -440l-212 40zM244 820q-57 -17 -95.5 -55
t-38.5 -110q0 -22 2 -27l160 -628l156 -40l-104 424q38 26 100 80q39 -12 72 -60.5t40 -71.5l3 -20q0 -47 -55 -89l51 -132q156 80 156 193q0 72 -51 128q-29 57 -70.5 86.5t-97.5 29.5q116 133 116 202q0 14 -24 67t-152 53q-61 0 -168 -30zM268 684q93 21 129 21
q25 0 48 -5.5t23 -29.5q0 -50 -106 -152l-54 -50zM300 660l28 -144q108 105 108 141q0 10 -8 11q-46 13 -67 13q-31 0 -61 -21z" />
    <glyph glyph-name="acute" unicode="&#xb4;" 
d="M64 736l260 144l112 -172l-316 -60zM92 732l32 -60l276 48l-84 132z" />
    <glyph glyph-name="dieresis" unicode="&#xa8;" horiz-adv-x="500" 
d="M-16 800q0 30 15 77t65 47q51 0 89.5 -29.5t38.5 -72.5q0 -13 -18 -75.5t-98 -62.5q-44 5 -68 38.5t-24 77.5zM308 812q0 30 15 77t65 47q52 0 90 -29.5t38 -72.5q0 -13 -17 -75.5t-99 -62.5q-52 4 -79 57q-13 29 -13 59zM24 796q0 -28 24.5 -48t51.5 -20q16 0 28 31
t12 41q0 70 -64 76q-30 0 -41 -31t-11 -49zM348 808q0 -29 18.5 -43.5t30 -19.5t27.5 -5q11 0 24.5 28t15.5 44q0 70 -64 76q-22 0 -31.5 -16.5t-15 -33t-5.5 -30.5z" />
    <glyph glyph-name="AE" unicode="&#xc6;" horiz-adv-x="900" 
d="M380 252l-148 24l-200 -424l-252 -12l532 1060l580 64l12 -212l-380 -64l16 -156l368 68l12 -176l-352 -72l32 -232l512 -24l-4 -212l-684 56zM392 276l52 -312l644 -52l2 34q0 68 -6 130l-68 1l-440 7l-32 292l352 68l-12 132l-360 -72l-24 204l376 64l-8 164l-548 -64
l-488 -1000l172 4l212 424zM308 564l48 -188l-116 16zM328 404l-24 112l-36 -100z" />
    <glyph glyph-name="Oslash" unicode="&#xd8;" horiz-adv-x="750" 
d="M-76 40l89 92q-45 89 -45 196q0 154 109 278.5t207.5 167.5t167.5 43q67 0 136 -30l80 85l148 -108l-76 -93q56 -74 56 -175q0 -113 -44.5 -190t-148.5 -206t-312 -129q-78 0 -147 33l-88 -76zM691 661l81 95l-104 64l-76 -82q-31 15 -62.5 23t-63.5 8q-81 0 -168.5 -50
t-160 -128t-96.5 -141t-24 -140q0 -104 48 -182l-93 -80l76 -76l98 77q53 -30 119 -30q140 0 269.5 100t170 204t40.5 178q0 94 -54 160zM584 606q3 -14 5 -27.5t2 -28.5q0 -59 -30.5 -106.5t-86.5 -47.5q-39 0 -76 29.5t-37 85.5q0 65 40.5 106t103.5 41q-75 -41 -75 -109
q0 -34 16.5 -51.5t36.5 -17.5q37 0 65.5 42t35.5 84z" />
    <glyph glyph-name="plusminus" unicode="&#xb1;" horiz-adv-x="450" 
d="M8 520l164 15l12 153h156l-16 -140l152 16l-16 -160l-164 -5l-20 -163h-152l20 158l-148 -6zM0 184l464 28l-8 -116l-472 -20zM176 424l-24 -164h100l20 163l152 5l8 96l-136 -12l12 144l-100 4l-20 -156l-156 -8v-80zM28 156l-8 -56l396 24l4 56z" />
    <glyph glyph-name="yen" unicode="&#xa5;" horiz-adv-x="700" 
d="M28 756l-100 8l-4 124l296 -20l200 -372l116 336l236 -12l-144 -374l104 2l-20 -140l-124 4l-43 -105l151 1l-32 -128l-173 -6l-91 -222l-236 -20l86 247l-166 -3l16 132l197 5l11 31l-16 56l-192 16l-4 136l100 -4zM44 780l204 -364l-124 8v-76l172 -18l44 -78l-16 -60
l-200 -4l-12 -84h184l-96 -240l176 20l82 206l190 10l24 88l-174 1l58 143h136l16 92l-115 1l151 379l-192 -4l-136 -376l-236 420l-228 16l4 -68z" />
    <glyph glyph-name="mu" unicode="&#xb5;" horiz-adv-x="600" 
d="M224 -16l-16 -276l-236 4l37 532q0 43 1 91.5t2 93.5q0 112 8 179l240 -28q0 -47 -4.5 -113.5t-4.5 -77.5q0 -71 7 -104.5t25.5 -76t44.5 -42.5q19 0 36.5 41.5t28 75.5t19.5 79.5t9 130.5l-1 67l204 -12l19 -122q3 -20 3 -52q0 -27 -6 -65t-16 -78.5t-23.5 -68
t-44.5 -71t-89 -76.5t-173 -33zM192 28q44 -13 95 -13q109 0 166 35t82 75l41 79q37 73 37 150q0 27 -8.5 83t-8.5 79l-148 4q4 -29 4 -56q0 -120 -36 -225.5t-94 -105.5q-31 0 -48 22t-23 36t-11 33q-8 42 -13 87.5t-5 92.5q0 73 10 152l-184 20q-6 -39 -6 -99l1 -42l2 -47
l2 -95l-2 -53l-37 -492l164 -4z" />
    <glyph glyph-name="ae" unicode="&#xe6;" horiz-adv-x="900" 
d="M536 524q78 24 134 24q60 0 106 -22.5t62.5 -32t41.5 -25.5l-268 -320q71 0 110.5 41t63.5 81l118 -142q-31 -84 -155.5 -115.5t-197.5 -31.5q-131 0 -179 55l-68 -36q-63 -12 -108 -12q-136 0 -175.5 98.5t-39.5 167.5q0 119 92.5 217t223.5 98l27 -1l4 -4l204 92z
M512 480l-4 140l-156 -68v-14l-24 1q-59 0 -148.5 -41t-128 -117t-38.5 -140q0 -134 62 -176.5t122 -42.5q78 0 155 36l53 -1q63 -58 167 -58q136 0 214 50.5t92 82.5l-89 111q0 -29 -40.5 -59.5t-86 -49.5t-82.5 -19l-22 2l290 348q-96 57 -195 57q-81 0 -141 -42zM498 162
q-16 9 -25 44.5t-9 67.5q0 72 33.5 109.5t93.5 37.5q49 0 93 -31zM324 478q-38 -26 -38 -73q0 -33 10.5 -41.5t27.5 -10.5v-104l-20 -2q-38 0 -77.5 27t-39.5 70q0 45 41 86t96 48zM651 384q-24 12 -49 12q-57 0 -86 -36q-30 -41 -30 -86q0 -25 15 -76z" />
    <glyph glyph-name="oslash" unicode="&#xf8;" horiz-adv-x="500" 
d="M5 124q-25 59 -25 130q0 116 93 215.5t223 99.5q64 0 123 -28l49 67l37 -33q71 -62 71 -67l-64 -72q26 -58 26 -125q0 -97 -50.5 -173t-123.5 -117t-148 -41q-57 0 -104 23l-76 -67l-112 92zM480 432l68 72q-9 6 -16 12t-27 26.5t-33 29.5l-49 -68q-42 37 -107 37
q-76 0 -165.5 -60t-127.5 -150q-19 -52 -19 -98q0 -62 32 -117l-72 -84l68 -64q6 13 40 45l31 32q42 -30 106 -30q79 0 148 46.5t108.5 119.5t39.5 144q0 57 -25 107zM414 447q6 -21 6 -45q0 -83 -41 -119t-76 -36q-42 0 -79 28t-37 69q0 49 48.5 92.5t112.5 43.5
q-62 -24 -62 -79q0 -30 10.5 -38t27.5 -10q29 0 56 31t34 63z" />
    <glyph glyph-name="questiondown" unicode="&#xbf;" 
d="M406 427q-87 0 -184 -91t-97 -133q0 -10 7 -11l27 -3q28 0 73 9l72 14q55 7 130.5 46.5t81.5 45.5q12 0 47 -105l37 -115q-63 -21 -204 -60.5t-230 -39.5q-167 0 -198 64t-33 82q0 91 162.5 253.5t257.5 190.5zM280 664q-36 0 -72.5 18.5t-46.5 41t-10 37.5
q0 47 24.5 77.5t38.5 33.5l38 4q100 0 112 -94q0 -63 -26 -88t-58 -30zM272 696q36 0 46 34t10 51q-3 28 -31 47q-27 15 -56 15q-56 -8 -56 -87q3 -22 32 -41t55 -19zM272 420l100 40l-26 73q-88 -32 -154.5 -92t-100.5 -98.5t-76 -104.5t-42 -111q0 -11 22 -61.5t159 -50.5
q97 0 182.5 23.5t138.5 38.5t93 27l-60 160q-14 -18 -44 -27l-16 -5q-76 -39 -155 -53.5t-104 -17.5t-42 -3l-27 2q-29 8 -29 33q0 64 82 143t99 84z" />
    <glyph glyph-name="exclamdown" unicode="&#xa1;" horiz-adv-x="200" 
d="M128 716q-45 0 -87 27t-42 70q0 47 24.5 77.5t38.5 33.5l38 4q100 0 112 -94q0 -46 -20.5 -80t-63.5 -38zM200 580l64 -540l-292 -88l60 612zM120 748q28 0 42 28t14 57q-4 29 -29.5 45.5t-57.5 16.5q-56 -6 -56 -87q3 -23 31.5 -41.5t55.5 -18.5zM176 536l-116 -8
l-44 -512l212 56z" />
    <glyph glyph-name="florin" unicode="&#x192;" 
d="M61 -10q-5 45 -8 134t-3 236h-115l-28 224l151 -16l-3 53q0 197 126.5 234.5t163.5 43.5t70 6q36 0 63 -5t52 -17q25 -10 40.5 -20.5t32 -30t27.5 -68.5l-172 -112q-10 29 -31.5 54t-46.5 25q-31 0 -44 -28t-21 -96l-5 -51h129v-188l-141 -4l-1 -118q0 -58 2.5 -149.5
t2.5 -107.5l4 -89q0 -95 -19.5 -171.5t-50 -114t-99 -63t-135.5 -25.5q-63 0 -171 35t-108 181q0 85 41 162l160 -104l-2 -17q0 -28 22 -46t50 -18q59 0 67.5 45t8.5 96q0 59 -9 130zM88 48q6 -45 6 -134q0 -83 -14 -155t-83 -72q-46 0 -71.5 27.5t-25.5 73.5l-124 76
q-24 -56 -24 -108q0 -97 79 -148.5t165 -51.5q44 0 82.5 7t119 38.5t80.5 299.5v23q-8 62 -8 222q0 33 2 125t2 117h141l-4 144l-133 -8l4 84q5 51 20 113t74 62q57 0 90 -95l132 88q-5 12 -11 22t-15 26q-7 8 -48 32.5t-98 24.5q-71 0 -172 -33l-45 -16q-18 -8 -61 -41.5
t-70 -146.5q3 -26 3 -112l-146 12l32 -160l111 4q0 -274 10 -340z" />
    <glyph glyph-name="guillemotleft" unicode="&#xab;" horiz-adv-x="950" 
d="M4 524l588 232l-20 -168l-252 -76l232 -80l-24 -172zM454 524l588 232l-20 -168l-252 -76l232 -80l-24 -172zM556 708l-121 -45l-359 -139l432 -224l12 104l-256 108l280 96zM1006 708l-120 -44l-360 -140l432 -224l12 104l-256 108l280 96z" />
    <glyph glyph-name="guillemotright" unicode="&#xbb;" horiz-adv-x="950" 
d="M546 524l-524 -264l-24 172l232 80l-252 76l-20 168zM996 524l-524 -264l-24 172l232 80l-252 76l-20 168zM-6 708l6 -55l6 -45l280 -96l-256 -108l12 -104l432 224l-147 58l-213 82zM444 708l12 -100l280 -96l-256 -108l12 -104l432 224l-146 57l-212 82z" />
    <glyph glyph-name="ellipsis" unicode="&#x2026;" horiz-adv-x="650" 
d="M80 204q62 0 95.5 -33.5t33.5 -63.5q0 -46 -24.5 -77t-38.5 -34l-38 -4q-100 0 -112 94q0 46 20 77q20 36 64 41zM320 208q62 0 95.5 -33.5t33.5 -63.5q0 -48 -35 -90q-15 -20 -28 -21l-38 -4q-99 0 -112 94q0 45 21 79t63 39zM556 212q62 0 95.5 -33.5t33.5 -63.5
q0 -26 -19.5 -67t-43.5 -44l-38 -4q-65 0 -86 31t-26 63q0 43 20.5 78t63.5 40zM88 172q-36 0 -46 -34t-10 -51q3 -29 29 -45.5t58 -16.5q56 6 56 87q-4 31 -50 52q-22 8 -37 8zM564 180q-26 0 -41 -26.5t-15 -58.5q3 -28 31 -47q27 -15 56 -15q56 8 56 87q-4 31 -36.5 45.5
t-50.5 14.5zM328 176q-26 0 -41 -27.5t-15 -57.5q3 -29 29 -45.5t58 -16.5q56 9 56 87q-3 24 -32.5 42t-54.5 18z" />
    <glyph glyph-name="nbspace" unicode="&#xa0;" horiz-adv-x="0" 
 />
    <glyph glyph-name="Agrave" unicode="&#xc0;" 
d="M312 900l480 -1156l-204 -20l-228 532l-128 20l-200 -424l-252 -12zM484 1020l-56 -88l-316 60l112 172zM312 828l-480 -956l172 4l212 424l160 -24l228 -520l144 8zM456 1016l-224 120l-84 -132l276 -48zM308 564l48 -188l-116 16zM328 404l-24 112l-36 -100z" />
    <glyph glyph-name="Atilde" unicode="&#xc3;" 
d="M312 900l480 -1156l-204 -20l-228 532l-128 20l-200 -424l-252 -12zM16 1024l12 112q83 51 156 51q44 0 83.5 -36t92.5 -36q83 0 139 49q25 19 25 40l24 -172q-130 -44 -212 -44q-43 0 -69.5 31t-121.5 31q-76 0 -129 -26zM312 828l-480 -956l172 4l212 424l160 -24
l228 -520l144 8zM48 1120l-8 -64q27 21 106 21q98 0 132.5 -28.5t83.5 -28.5q38 0 73.5 7t80.5 25l-8 80q0 -21 -53.5 -32t-90.5 -11q-72 0 -103.5 35t-86.5 35q-63 0 -126 -39zM308 564l48 -188l-116 16zM328 404l-24 112l-36 -100z" />
    <glyph glyph-name="Otilde" unicode="&#xd5;" horiz-adv-x="750" 
d="M680 732q116 -89 116 -236q0 -105 -40 -180.5t-105.5 -156.5t-166.5 -134.5t-193 -53.5q-105 0 -180 50t-109.5 135.5t-34.5 171.5q0 154 109.5 278.5t208 167.5t167.5 43q116 0 228 -85zM148 1028l12 112q83 51 156 51q45 0 84 -36t92 -36q80 0 122 35t42 54l24 -172
q-137 -44 -212 -44q-43 0 -68 31t-123 31q-72 0 -129 -26zM656 696q-31 25 -62 40.5t-56 22t-39 8.5t-33 2q-81 0 -168.5 -50t-184 -154t-96.5 -254q0 -73 28 -142t84 -110t136 -41q135 0 238.5 79t143.5 132.5t68.5 126.5t28.5 145q0 125 -88 195zM180 1124l-8 -64
q26 21 106 21q98 0 126 -23.5t45.5 -28.5t44.5 -5q67 0 154 32l-8 80q0 -23 -53.5 -33t-90.5 -10q-72 0 -102.5 35t-87.5 35q-63 0 -126 -39zM584 606q3 -14 5 -27.5t2 -28.5q0 -59 -30.5 -106.5t-86.5 -47.5q-39 0 -76 29.5t-37 85.5q0 65 40.5 106t103.5 41
q-75 -41 -75 -109q0 -34 16.5 -51.5t36.5 -17.5q37 0 65.5 42t35.5 84z" />
    <glyph glyph-name="OE" unicode="&#x152;" horiz-adv-x="1100" 
d="M606 114q-152 -143 -316 -143q-103 0 -184.5 53t-106 150.5t-24.5 166.5q0 175 93 280t181.5 150.5t188.5 45.5l47 -2l643 105l12 -212l-336 -56l8 -152l332 56l12 -176l-336 -64l16 -240l512 -24l-4 -212l-712 36zM628 184l32 -284l664 -32q1 7 1.5 16.5t0.5 17.5l-2 69
l-4 61l-69 1l-439 7l-15 296l335 64l-12 132l-330 -64l-10 204l332 56l-8 164l-608 -108l-30 1q-86 0 -174 -42t-182 -141t-94 -267q0 -42 6 -78.5t27 -95t84.5 -104.5t153.5 -46q95 0 168.5 39.5t110 69t62.5 64.5zM584 606q3 -14 5 -27.5t2 -28.5q0 -59 -30.5 -106.5
t-86.5 -47.5q-39 0 -76 29.5t-37 85.5q0 65 40.5 106t103.5 41q-75 -41 -75 -109q0 -34 16.5 -51.5t36.5 -17.5q37 0 65.5 42t35.5 84z" />
    <glyph glyph-name="oe" unicode="&#x153;" horiz-adv-x="900" 
d="M406 51q-88 -71 -190 -71q-84 0 -136 41.5t-75.5 103.5t-23.5 129q0 61 16 106.5t93.5 127.5t206.5 82q70 0 122.5 -29t74.5 -64q95 63 210 63q131 0 216 -76l-268 -320q71 0 112.5 43t61.5 79l118 -142q-30 -83 -146.5 -113.5t-190.5 -30.5q-146 0 -201 71zM409 103
q59 -98 203 -98q69 0 128.5 16t111.5 49t66 62l-89 111q0 -29 -40.5 -59.5t-86 -49.5t-82.5 -19l-22 2l290 348q-85 50 -188 50q-127 0 -222 -79q-60 105 -162 105q-76 0 -137.5 -41t-113.5 -97.5t-52 -161.5q0 -134 67 -180t129 -46q112 0 200 88zM558 174q-34 22 -34 112
q0 72 34 109.5t93 37.5q49 0 93 -31zM414 447q6 -21 6 -45q0 -83 -41 -119t-76 -36q-42 0 -79 28t-37 69q0 49 48.5 92.5t112.5 43.5q-62 -24 -62 -79q0 -30 10.5 -38t27.5 -10q29 0 56 31t34 63zM707 392q-24 12 -49 12q-59 0 -87.5 -37.5t-28.5 -84.5q0 -24 10 -57l5 -19z
" />
    <glyph glyph-name="endash" unicode="&#x2013;" horiz-adv-x="650" 
d="M8 520l648 48l-16 -160l-644 -20zM32 496v-80l572 16l8 96z" />
    <glyph glyph-name="emdash" unicode="&#x2014;" horiz-adv-x="450" 
d="M8 520l468 44l-16 -160l-464 -16zM32 496v-80l392 12l8 96z" />
    <glyph glyph-name="quotedblleft" unicode="&#x201c;" horiz-adv-x="500" 
d="M143 547l-104 14l-79 312l203 -29zM443 547l-104 14l-79 312l203 -29zM427 571l14 254l-155 20l73 -270zM127 571l14 254l-155 20l73 -270z" />
    <glyph glyph-name="quotedblright" unicode="&#x201d;" horiz-adv-x="500" 
d="M143 547l-104 14l-79 312l203 -29zM443 547l-104 14l-79 312l203 -29zM427 571l14 254l-155 20l73 -270zM127 571l14 254l-155 20l73 -270z" />
    <glyph glyph-name="quoteleft" unicode="&#x2018;" horiz-adv-x="200" 
d="M193 547l-104 14l-79 312l203 -29zM177 571l14 254l-155 20l73 -270z" />
    <glyph glyph-name="quoteright" unicode="&#x2019;" horiz-adv-x="200" 
d="M193 547l-104 14l-79 312l203 -29zM177 571l14 254l-155 20l73 -270z" />
    <glyph glyph-name="divide" unicode="&#xf7;" horiz-adv-x="450" 
d="M8 520l468 44l-16 -160l-464 -16zM212 352q62 0 95.5 -33t33.5 -64q0 -26 -18 -65q-21 -41 -45 -46l-38 -4q-100 0 -112 94q0 45 21 79t63 39zM200 792q62 0 95.5 -33.5t33.5 -63.5q0 -45 -35 -91q-16 -19 -28 -20l-38 -4q-100 0 -112 94q0 42 19 77q23 37 65 41zM32 496
v-80l392 12l8 96zM208 760q-27 0 -41.5 -27t-14.5 -58q3 -28 29 -45t58 -17q56 9 56 87q-4 31 -37.5 45.5t-49.5 14.5zM220 320q-26 0 -41 -27.5t-15 -57.5q3 -29 29 -45.5t58 -16.5q56 9 56 87q-3 31 -50 52q-22 8 -37 8z" />
    <glyph glyph-name="ydieresis" unicode="&#xff;" horiz-adv-x="650" 
d="M-40 476l196 92l196 -364l120 336l216 -84l-364 -880l-192 72l112 304zM48 800q0 30 15 77t65 47q51 0 89.5 -29t38.5 -73q0 -13 -18 -75.5t-98 -62.5q-51 6 -71.5 44.5t-20.5 71.5zM372 812q0 30 15 77t65 47q52 0 90 -29.5t38 -72.5q0 -13 -17 -75.5t-99 -62.5
q-52 4 -72 43.5t-20 72.5zM88 796q0 -28 24.5 -48t51.5 -20q16 0 28 31t12 41q0 70 -64 76q-30 0 -41 -31t-11 -49zM4 464l272 -504l-112 -296l148 -48l340 832l-160 64l-140 -380l-212 396zM412 808q0 -29 24 -48.5t52 -19.5q11 0 24.5 28t15.5 44q0 70 -64 76
q-22 0 -31.5 -16.5t-15 -33t-5.5 -30.5z" />
    <glyph glyph-name="Ydieresis" unicode="&#x178;" horiz-adv-x="700" 
d="M28 756l-100 8l-4 124l296 -20l200 -372l116 336l236 -12l-372 -968l-236 -20l144 412zM48 1064q0 30 15 77t65 47q51 0 89.5 -29t38.5 -73q0 -13 -9.5 -46.5t-38 -62.5t-68.5 -29q-51 6 -71.5 44.5t-20.5 71.5zM372 1076q0 49 18 86.5t62 37.5q71 0 99.5 -37t28.5 -65
q0 -13 -10 -47t-38 -62.5t-68 -28.5q-34 0 -63 33t-29 83zM88 1060q0 -28 22.5 -46.5t53.5 -21.5q12 0 26 30t14 42q0 70 -64 76q-30 0 -41 -31t-11 -49zM44 780l296 -528l-140 -388l176 20l368 920l-192 -4l-136 -376l-236 420l-228 16l4 -68zM412 1072q0 -29 23 -48.5
t53 -19.5q14 -1 33 45l7 27q0 69 -64 76q-22 0 -31.5 -17t-15 -33t-5.5 -30z" />
    <glyph glyph-name="guilsinglleft" unicode="&#x2039;" horiz-adv-x="500" 
d="M4 524l588 232l-20 -168l-252 -76l232 -80l-24 -172zM556 708l-121 -45l-359 -139l432 -224l12 104l-256 108l280 96z" />
    <glyph glyph-name="guilsinglright" unicode="&#x203a;" horiz-adv-x="500" 
d="M546 524l-524 -264l-24 172l232 80l-252 76l-20 168zM-6 708l6 -55l6 -45l280 -96l-256 -108l12 -104l432 224l-147 58l-213 82z" />
    <glyph glyph-name="daggerdbl" unicode="&#x2021;" horiz-adv-x="400" 
d="M272 392l128 -4l-8 -164l-124 -4l-76 -136l-80 140l-108 8v160h116l4 96h-116v160l108 8l80 140l76 -136l124 -4l8 -164l-128 -4zM244 356l4 168h116l8 88h-120l-52 112l-52 -108l-108 -4v-88l112 -4l-4 -160l-112 -4v-88l108 -4l52 -108l52 112h120l-8 88h-116z" />
    <glyph glyph-name="quotesinglbase" unicode="&#x201a;" horiz-adv-x="200" 
d="M173 -13l-104 14l-79 312l203 -29zM157 11l14 254l-155 20l73 -270z" />
    <glyph glyph-name="quotedblbase" unicode="&#x201e;" horiz-adv-x="500" 
d="M139 -21l-104 14l-79 312l203 -29zM439 -21l-104 14l-79 312l203 -29zM423 3l14 254l-155 20l73 -270zM123 3l14 254l-155 20l73 -270z" />
    <glyph glyph-name="perthousand" unicode="&#x2030;" horiz-adv-x="1050" 
d="M776 856l-612 -1016l-252 -8l596 1012zM87 828l20 1q64 0 109.5 -36t58.5 -63.5t13 -53.5q0 -75 -39 -122t-64 -52t-54 -5q-101 0 -135.5 51t-40.5 96q0 70 33 123.5t99 60.5zM567 264l20 1q64 0 109.5 -36t58.5 -62.5t13 -54.5q0 -75 -40 -122.5t-65 -52t-52 -4.5
q-101 0 -135.5 50.5t-40.5 96.5q0 70 33 123.5t99 60.5zM917 264l20 1q80 0 130.5 -52.5t50.5 -100.5q0 -75 -40 -122.5t-65 -52t-52 -4.5q-101 0 -135.5 50.5t-40.5 96.5q0 70 33 123t99 61zM579 214q-87 -27 -87 -133q6 -45 46.5 -71t89.5 -26q46 8 66.5 48t20.5 88
q-5 48 -49.5 72.5t-68.5 24.5zM99 778q-87 -27 -87 -133q6 -45 46.5 -71t89.5 -26q46 8 66.5 46.5t20.5 89.5q-5 48 -49.5 72.5t-68.5 24.5zM929 214q-87 -27 -87 -133q6 -46 46.5 -71.5t89.5 -25.5q46 8 66.5 46.5t20.5 89.5q-5 48 -50.5 72.5t-67.5 24.5zM708 820l-172 -4
l-560 -956l160 4z" />
    <glyph glyph-name="Acircumflex" unicode="&#xc2;" 
d="M312 900l480 -1156l-204 -20l-228 532l-128 20l-200 -424l-252 -12zM304 1160l280 -96l12 -136l-292 96l-276 -84l20 136zM312 828l-480 -956l172 4l212 424l160 -24l228 -520l144 8zM560 968l-4 68l-248 88l-236 -76l-8 -64l244 68zM308 564l48 -188l-116 16zM328 404
l-24 112l-36 -100z" />
    <glyph glyph-name="Ecircumflex" unicode="&#xca;" 
d="M256 64l512 -24l-4 -212l-712 36l-40 736l-68 -12l12 232l592 88l12 -212l-336 -56l8 -152l332 56l12 -176l-336 -64zM304 1160l280 -96l12 -136l-292 96l-276 -84l20 136zM560 968l-4 68l-248 88l-236 -76l-8 -64l244 68zM232 28l-15 296l335 64l-12 132l-330 -64
l-10 204l332 56l-8 164l-540 -80l-16 -176l64 8l48 -744l664 -32q1 7 1.5 16.5t0.5 17.5q0 68 -6 130l-69 1z" />
    <glyph glyph-name="Aacute" unicode="&#xc1;" 
d="M312 900l480 -1156l-204 -20l-228 532l-128 20l-200 -424l-252 -12zM116 1032l260 144l112 -172l-316 -60zM312 828l-480 -956l172 4l212 424l160 -24l228 -520l144 8zM144 1028l32 -60l276 48l-84 132zM308 564l48 -188l-116 16zM328 404l-24 112l-36 -100z" />
    <glyph glyph-name="Edieresis" unicode="&#xcb;" 
d="M256 64l512 -24l-4 -212l-712 36l-40 736l-68 -12l12 232l592 88l12 -212l-336 -56l8 -152l332 56l12 -176l-336 -64zM48 1064q0 30 15 77t65 47q51 0 89.5 -29t38.5 -73q0 -13 -9.5 -46.5t-38 -62.5t-68.5 -29q-51 6 -71.5 44.5t-20.5 71.5zM372 1076q0 49 18 86.5
t62 37.5q71 0 99.5 -37t28.5 -65q0 -13 -10 -47t-38 -62.5t-68 -28.5q-34 0 -63 33t-29 83zM88 1060q0 -28 22.5 -46.5t53.5 -21.5q12 0 26 30t14 42q0 70 -64 76q-30 0 -41 -31t-11 -49zM232 28l-15 296l335 64l-12 132l-330 -64l-10 204l332 56l-8 164l-540 -80l-16 -176
l64 8l48 -744l664 -32q1 7 1.5 16.5t0.5 17.5q0 68 -6 130l-69 1zM412 1072q0 -29 23 -48.5t53 -19.5q14 -1 33 45l7 27q0 69 -64 76q-22 0 -31.5 -17t-15 -33t-5.5 -30z" />
    <glyph glyph-name="Egrave" unicode="&#xc8;" 
d="M256 64l512 -24l-4 -212l-712 36l-40 736l-68 -12l12 232l592 88l12 -212l-336 -56l8 -152l332 56l12 -176l-336 -64zM484 1020l-56 -88l-316 60l112 172zM456 1016l-224 120l-84 -132l276 -48zM232 28l-15 296l335 64l-12 132l-330 -64l-10 204l332 56l-8 164l-540 -80
l-16 -176l64 8l48 -744l664 -32q1 7 1.5 16.5t0.5 17.5q0 68 -6 130l-69 1z" />
    <glyph glyph-name="Iacute" unicode="&#xcd;" 
d="M320 224l248 -4l-4 -212h-588l24 188l136 4l20 424l-212 -36l12 232l592 88l12 -212l-204 -40zM116 1032l260 144l112 -172l-316 -60zM144 1028l32 -60l276 48l-84 132zM288 188l44 488l200 40l-8 164l-540 -80l-16 -176l216 28l-20 -472l-144 -12l-16 -136l540 4l2 34
q0 68 -6 130l-48 -2l-165 -8z" />
    <glyph glyph-name="Icircumflex" unicode="&#xce;" 
d="M320 224l248 -4l-4 -212h-588l24 188l136 4l20 424l-212 -36l12 232l592 88l12 -212l-204 -40zM304 1160l280 -96l12 -136l-292 96l-276 -84l20 136zM560 968l-4 68l-248 88l-236 -76l-8 -64l244 68zM288 188l44 488l200 40l-8 164l-540 -80l-16 -176l216 28l-20 -472
l-144 -12l-16 -136l540 4l2 34q0 68 -6 130l-48 -2l-165 -8z" />
    <glyph glyph-name="Idieresis" unicode="&#xcf;" 
d="M320 224l248 -4l-4 -212h-588l24 188l136 4l20 424l-212 -36l12 232l592 88l12 -212l-204 -40zM48 1064q0 30 15 77t65 47q51 0 89.5 -29t38.5 -73q0 -13 -9.5 -46.5t-38 -62.5t-68.5 -29q-51 6 -71.5 44.5t-20.5 71.5zM372 1076q0 49 18 86.5t62 37.5q71 0 99.5 -37
t28.5 -65q0 -13 -10 -47t-38 -62.5t-68 -28.5q-34 0 -63 33t-29 83zM88 1060q0 -28 22.5 -46.5t53.5 -21.5q12 0 26 30t14 42q0 70 -64 76q-30 0 -41 -31t-11 -49zM288 188l44 488l200 40l-8 164l-540 -80l-16 -176l216 28l-20 -472l-144 -12l-16 -136l540 4l2 34
q0 68 -6 130l-48 -2l-165 -8zM412 1072q0 -29 23 -48.5t53 -19.5q14 -1 33 45l7 27q0 69 -64 76q-22 0 -31.5 -17t-15 -33t-5.5 -30z" />
    <glyph glyph-name="Igrave" unicode="&#xcc;" 
d="M320 224l248 -4l-4 -212h-588l24 188l136 4l20 424l-212 -36l12 232l592 88l12 -212l-204 -40zM484 1020l-56 -88l-316 60l112 172zM456 1016l-224 120l-84 -132l276 -48zM288 188l44 488l200 40l-8 164l-540 -80l-16 -176l216 28l-20 -472l-144 -12l-16 -136l540 4l2 34
q0 68 -6 130l-48 -2l-165 -8z" />
    <glyph glyph-name="Oacute" unicode="&#xd3;" horiz-adv-x="750" 
d="M680 732q116 -89 116 -236q0 -105 -40 -180.5t-105.5 -156.5t-166.5 -134.5t-193 -53.5q-105 0 -180 50t-109.5 135.5t-34.5 171.5q0 154 109.5 278.5t208 167.5t167.5 43q116 0 228 -85zM284 1040l260 144l112 -172l-316 -60zM312 1036l32 -60l276 48l-84 132zM656 696
q-31 25 -62 40.5t-56 22t-39 8.5t-33 2q-81 0 -168.5 -50t-184 -154t-96.5 -254q0 -73 28 -142t84 -110t136 -41q135 0 238.5 79t143.5 132.5t68.5 126.5t28.5 145q0 125 -88 195zM584 606q3 -14 5 -27.5t2 -28.5q0 -59 -30.5 -106.5t-86.5 -47.5q-39 0 -76 29.5t-37 85.5
q0 65 40.5 106t103.5 41q-75 -41 -75 -109q0 -34 16.5 -51.5t36.5 -17.5q37 0 65.5 42t35.5 84z" />
    <glyph glyph-name="Ocircumflex" unicode="&#xd4;" horiz-adv-x="750" 
d="M680 732q116 -89 116 -236q0 -105 -40 -180.5t-105.5 -156.5t-166.5 -134.5t-193 -53.5q-105 0 -180 50t-109.5 135.5t-34.5 171.5q0 154 109.5 278.5t208 167.5t167.5 43q116 0 228 -85zM392 1164l280 -96l12 -136l-292 96l-276 -84l20 136zM648 972l-4 68l-248 88
l-236 -76l-8 -64l244 68zM656 696q-31 25 -62 40.5t-56 22t-39 8.5t-33 2q-81 0 -168.5 -50t-184 -154t-96.5 -254q0 -73 28 -142t84 -110t136 -41q135 0 238.5 79t143.5 132.5t68.5 126.5t28.5 145q0 125 -88 195zM584 606q3 -14 5 -27.5t2 -28.5q0 -59 -30.5 -106.5
t-86.5 -47.5q-39 0 -76 29.5t-37 85.5q0 65 40.5 106t103.5 41q-75 -41 -75 -109q0 -34 16.5 -51.5t36.5 -17.5q37 0 65.5 42t35.5 84z" />
    <glyph glyph-name="Ograve" unicode="&#xd2;" horiz-adv-x="750" 
d="M680 732q116 -89 116 -236q0 -105 -40 -180.5t-105.5 -156.5t-166.5 -134.5t-193 -53.5q-105 0 -180 50t-109.5 135.5t-34.5 171.5q0 154 109.5 278.5t208 167.5t167.5 43q116 0 228 -85zM484 1020l-56 -88l-316 60l112 172zM456 1016l-224 120l-84 -132l276 -48z
M656 696q-31 25 -62 40.5t-56 22t-39 8.5t-33 2q-81 0 -168.5 -50t-184 -154t-96.5 -254q0 -73 28 -142t84 -110t136 -41q135 0 238.5 79t143.5 132.5t68.5 126.5t28.5 145q0 125 -88 195zM584 606q3 -14 5 -27.5t2 -28.5q0 -59 -30.5 -106.5t-86.5 -47.5q-39 0 -76 29.5
t-37 85.5q0 65 40.5 106t103.5 41q-75 -41 -75 -109q0 -34 16.5 -51.5t36.5 -17.5q37 0 65.5 42t35.5 84z" />
    <glyph glyph-name="Uacute" unicode="&#xda;" horiz-adv-x="650" 
d="M248 912l-3 -105q0 -200 18 -339.5t36.5 -179.5t46.5 -40q35 0 59 61t24 185q0 16 -4 92.5t-4 105.5l-7 118l-6 82l260 -20q22 -139 22 -320q0 -203 -30 -295t-95.5 -153t-105.5 -84t-125 -23q-140 0 -215 64t-102.5 216.5t-27.5 316.5q0 124 11 202l-84 20l-4 124z
M116 1032l260 144l112 -172l-316 -60zM144 1028l32 -60l276 48l-84 132zM220 888l-280 24l4 -68l88 -12q-9 -50 -9 -185q0 -165 23 -336.5t94 -222.5t180 -51q169 0 221.5 74t74.5 117t32 87t10 99l3 117q0 134 -11 252l-6 65l-200 16q5 -32 9.5 -87t4.5 -119l2 -135
q0 -164 -25.5 -238t-95.5 -74q-32 0 -56 25t-33 68t-18.5 111t-9.5 161q0 35 -4 98t-4 91q0 72 6 123z" />
    <glyph glyph-name="Ucircumflex" unicode="&#xdb;" horiz-adv-x="650" 
d="M248 912l-3 -105q0 -200 18 -339.5t36.5 -179.5t46.5 -40q35 0 59 61t24 185q0 16 -4 92.5t-4 105.5l-7 118l-6 82l260 -20q22 -139 22 -320q0 -203 -30 -295t-95.5 -153t-105.5 -84t-125 -23q-140 0 -215 64t-102.5 216.5t-27.5 316.5q0 124 11 202l-84 20l-4 124z
M304 1160l280 -96l12 -136l-292 96l-276 -84l20 136zM560 968l-4 68l-248 88l-236 -76l-8 -64l244 68zM220 888l-280 24l4 -68l88 -12q-9 -50 -9 -185q0 -165 23 -336.5t94 -222.5t180 -51q169 0 221.5 74t74.5 117t32 87t10 99l3 117q0 134 -11 252l-6 65l-200 16
q5 -32 9.5 -87t4.5 -119l2 -135q0 -164 -25.5 -238t-95.5 -74q-32 0 -56 25t-33 68t-18.5 111t-9.5 161q0 35 -4 98t-4 91q0 72 6 123z" />
    <glyph glyph-name="Ugrave" unicode="&#xd9;" horiz-adv-x="650" 
d="M248 912l-3 -105q0 -200 18 -339.5t36.5 -179.5t46.5 -40q35 0 59 61t24 185q0 16 -4 92.5t-4 105.5l-7 118l-6 82l260 -20q22 -139 22 -320q0 -203 -30 -295t-95.5 -153t-105.5 -84t-125 -23q-140 0 -215 64t-102.5 216.5t-27.5 316.5q0 124 11 202l-84 20l-4 124z
M484 1020l-56 -88l-316 60l112 172zM456 1016l-224 120l-84 -132l276 -48zM220 888l-280 24l4 -68l88 -12q-9 -50 -9 -185q0 -165 23 -336.5t94 -222.5t180 -51q169 0 221.5 74t74.5 117t32 87t10 99l3 117q0 134 -11 252l-6 65l-200 16q5 -32 9.5 -87t4.5 -119l2 -135
q0 -164 -25.5 -238t-95.5 -74q-32 0 -56 25t-33 68t-18.5 111t-9.5 161q0 35 -4 98t-4 91q0 72 6 123z" />
    <glyph glyph-name="cedilla" unicode="&#xb8;" horiz-adv-x="600" 
d="M412 27q91 -66 91 -127q0 -81 -89.5 -115.5t-113.5 -40.5l-172 124q74 0 112.5 21.5t38.5 58.5q0 29 -39 67l-60 57l50 3l122 9zM252 45q61 -43 61 -87q0 -66 -113 -110l100 -80q71 18 116.5 56t45.5 79q0 67 -110 147z" />
  </font>
</defs>
</svg>
